<?xml version="1.0" encoding="UTF-8" standalone="no"?>
<!DOCTYPE svg PUBLIC "-//W3C//DTD SVG 1.1//EN"
 "http://www.w3.org/Graphics/SVG/1.1/DTD/svg11.dtd">
<!-- Generated by graphviz version 2.40.1 (20161225.0304)
 -->
<!-- Title: G Pages: 1 -->
<svg width="1101pt" height="2558pt"
 viewBox="0.00 0.00 1100.75 2558.00" xmlns="http://www.w3.org/2000/svg" xmlns:xlink="http://www.w3.org/1999/xlink">
<g id="graph0" class="graph" transform="scale(1 1) rotate(0) translate(4 2554)">
<title>G</title>
<polygon fill="#ffffff" stroke="transparent" points="-4,4 -4,-2554 1096.7463,-2554 1096.7463,4 -4,4"/>
<g id="clust1" class="cluster">
<title>cluster_Global</title>
<path fill="none" stroke="#c0c0c0" d="M323.8766,-190C323.8766,-190 1072.7463,-190 1072.7463,-190 1078.7463,-190 1084.7463,-196 1084.7463,-202 1084.7463,-202 1084.7463,-2530 1084.7463,-2530 1084.7463,-2536 1078.7463,-2542 1072.7463,-2542 1072.7463,-2542 323.8766,-2542 323.8766,-2542 317.8766,-2542 311.8766,-2536 311.8766,-2530 311.8766,-2530 311.8766,-202 311.8766,-202 311.8766,-196 317.8766,-190 323.8766,-190"/>
<text text-anchor="middle" x="698.3114" y="-2529.2" font-family="Times,serif" font-size="11.00" fill="#c0c0c0">Global</text>
</g>
<g id="clust2" class="cluster">
<title>cluster_\Anax</title>
<path fill="none" stroke="#c0c0c0" d="M331.8766,-198C331.8766,-198 1064.7463,-198 1064.7463,-198 1070.7463,-198 1076.7463,-204 1076.7463,-210 1076.7463,-210 1076.7463,-2502 1076.7463,-2502 1076.7463,-2508 1070.7463,-2514 1064.7463,-2514 1064.7463,-2514 331.8766,-2514 331.8766,-2514 325.8766,-2514 319.8766,-2508 319.8766,-2502 319.8766,-2502 319.8766,-210 319.8766,-210 319.8766,-204 325.8766,-198 331.8766,-198"/>
<text text-anchor="middle" x="698.3114" y="-2501.2" font-family="Times,serif" font-size="11.00" fill="#c0c0c0">Anax</text>
</g>
<g id="clust3" class="cluster">
<title>cluster_\Anax\Controller</title>
<path fill="none" stroke="#c0c0c0" d="M879.7463,-2252C879.7463,-2252 1056.7463,-2252 1056.7463,-2252 1062.7463,-2252 1068.7463,-2258 1068.7463,-2264 1068.7463,-2264 1068.7463,-2474 1068.7463,-2474 1068.7463,-2480 1062.7463,-2486 1056.7463,-2486 1056.7463,-2486 879.7463,-2486 879.7463,-2486 873.7463,-2486 867.7463,-2480 867.7463,-2474 867.7463,-2474 867.7463,-2264 867.7463,-2264 867.7463,-2258 873.7463,-2252 879.7463,-2252"/>
<text text-anchor="middle" x="968.2463" y="-2473.2" font-family="Times,serif" font-size="11.00" fill="#c0c0c0">Controller</text>
</g>
<g id="clust4" class="cluster">
<title>cluster_\Anax\Page</title>
<path fill="none" stroke="#c0c0c0" d="M945.2463,-2172C945.2463,-2172 991.2463,-2172 991.2463,-2172 997.2463,-2172 1003.2463,-2178 1003.2463,-2184 1003.2463,-2184 1003.2463,-2232 1003.2463,-2232 1003.2463,-2238 997.2463,-2244 991.2463,-2244 991.2463,-2244 945.2463,-2244 945.2463,-2244 939.2463,-2244 933.2463,-2238 933.2463,-2232 933.2463,-2232 933.2463,-2184 933.2463,-2184 933.2463,-2178 939.2463,-2172 945.2463,-2172"/>
<text text-anchor="middle" x="968.2463" y="-2231.2" font-family="Times,serif" font-size="11.00" fill="#c0c0c0">Page</text>
</g>
<g id="clust5" class="cluster">
<title>cluster_\Anax\Commons</title>
<path fill="none" stroke="#c0c0c0" d="M533.8114,-2185C533.8114,-2185 731.8114,-2185 731.8114,-2185 737.8114,-2185 743.8114,-2191 743.8114,-2197 743.8114,-2197 743.8114,-2299 743.8114,-2299 743.8114,-2305 737.8114,-2311 731.8114,-2311 731.8114,-2311 533.8114,-2311 533.8114,-2311 527.8114,-2311 521.8114,-2305 521.8114,-2299 521.8114,-2299 521.8114,-2197 521.8114,-2197 521.8114,-2191 527.8114,-2185 533.8114,-2185"/>
<text text-anchor="middle" x="632.8114" y="-2298.2" font-family="Times,serif" font-size="11.00" fill="#c0c0c0">Commons</text>
</g>
<g id="clust6" class="cluster">
<title>cluster_\Anax\Configure</title>
<path fill="none" stroke="#c0c0c0" d="M567.8114,-206C567.8114,-206 697.8114,-206 697.8114,-206 703.8114,-206 709.8114,-212 709.8114,-218 709.8114,-218 709.8114,-482 709.8114,-482 709.8114,-488 703.8114,-494 697.8114,-494 697.8114,-494 567.8114,-494 567.8114,-494 561.8114,-494 555.8114,-488 555.8114,-482 555.8114,-482 555.8114,-218 555.8114,-218 555.8114,-212 561.8114,-206 567.8114,-206"/>
<text text-anchor="middle" x="632.8114" y="-481.2" font-family="Times,serif" font-size="11.00" fill="#c0c0c0">Configure</text>
</g>
<g id="clust7" class="cluster">
<title>cluster_\Anax\DI</title>
<path fill="none" stroke="#c0c0c0" d="M339.8766,-1902C339.8766,-1902 1037.7463,-1902 1037.7463,-1902 1043.7463,-1902 1049.7463,-1908 1049.7463,-1914 1049.7463,-1914 1049.7463,-2152 1049.7463,-2152 1049.7463,-2158 1043.7463,-2164 1037.7463,-2164 1037.7463,-2164 339.8766,-2164 339.8766,-2164 333.8766,-2164 327.8766,-2158 327.8766,-2152 327.8766,-2152 327.8766,-1914 327.8766,-1914 327.8766,-1908 333.8766,-1902 339.8766,-1902"/>
<text text-anchor="middle" x="688.8114" y="-2151.2" font-family="Times,serif" font-size="11.00" fill="#c0c0c0">DI</text>
</g>
<g id="clust8" class="cluster">
<title>cluster_\Anax\DI\Exception</title>
<path fill="none" stroke="#c0c0c0" d="M906.7463,-2010C906.7463,-2010 1029.7463,-2010 1029.7463,-2010 1035.7463,-2010 1041.7463,-2016 1041.7463,-2022 1041.7463,-2022 1041.7463,-2124 1041.7463,-2124 1041.7463,-2130 1035.7463,-2136 1029.7463,-2136 1029.7463,-2136 906.7463,-2136 906.7463,-2136 900.7463,-2136 894.7463,-2130 894.7463,-2124 894.7463,-2124 894.7463,-2022 894.7463,-2022 894.7463,-2016 900.7463,-2010 906.7463,-2010"/>
<text text-anchor="middle" x="968.2463" y="-2123.2" font-family="Times,serif" font-size="11.00" fill="#c0c0c0">Exception</text>
</g>
<g id="clust9" class="cluster">
<title>cluster_\Anax\Request</title>
<path fill="none" stroke="#c0c0c0" d="M940.2463,-1822C940.2463,-1822 996.2463,-1822 996.2463,-1822 1002.2463,-1822 1008.2463,-1828 1008.2463,-1834 1008.2463,-1834 1008.2463,-1882 1008.2463,-1882 1008.2463,-1888 1002.2463,-1894 996.2463,-1894 996.2463,-1894 940.2463,-1894 940.2463,-1894 934.2463,-1894 928.2463,-1888 928.2463,-1882 928.2463,-1882 928.2463,-1834 928.2463,-1834 928.2463,-1828 934.2463,-1822 940.2463,-1822"/>
<text text-anchor="middle" x="968.2463" y="-1881.2" font-family="Times,serif" font-size="11.00" fill="#c0c0c0">Request</text>
</g>
<g id="clust10" class="cluster">
<title>cluster_\Anax\Response</title>
<path fill="none" stroke="#c0c0c0" d="M601.3114,-1688C601.3114,-1688 1023.2463,-1688 1023.2463,-1688 1029.2463,-1688 1035.2463,-1694 1035.2463,-1700 1035.2463,-1700 1035.2463,-1802 1035.2463,-1802 1035.2463,-1808 1029.2463,-1814 1023.2463,-1814 1023.2463,-1814 601.3114,-1814 601.3114,-1814 595.3114,-1814 589.3114,-1808 589.3114,-1802 589.3114,-1802 589.3114,-1700 589.3114,-1700 589.3114,-1694 595.3114,-1688 601.3114,-1688"/>
<text text-anchor="middle" x="812.2788" y="-1801.2" font-family="Times,serif" font-size="11.00" fill="#c0c0c0">Response</text>
</g>
<g id="clust11" class="cluster">
<title>cluster_\Anax\Route</title>
<path fill="none" stroke="#c0c0c0" d="M881.7463,-1256C881.7463,-1256 1054.7463,-1256 1054.7463,-1256 1060.7463,-1256 1066.7463,-1262 1066.7463,-1268 1066.7463,-1268 1066.7463,-1668 1066.7463,-1668 1066.7463,-1674 1060.7463,-1680 1054.7463,-1680 1054.7463,-1680 881.7463,-1680 881.7463,-1680 875.7463,-1680 869.7463,-1674 869.7463,-1668 869.7463,-1668 869.7463,-1268 869.7463,-1268 869.7463,-1262 875.7463,-1256 881.7463,-1256"/>
<text text-anchor="middle" x="968.2463" y="-1667.2" font-family="Times,serif" font-size="11.00" fill="#c0c0c0">Route</text>
</g>
<g id="clust12" class="cluster">
<title>cluster_\Anax\Route\Exception</title>
<path fill="none" stroke="#c0c0c0" d="M889.7463,-1418C889.7463,-1418 1046.7463,-1418 1046.7463,-1418 1052.7463,-1418 1058.7463,-1424 1058.7463,-1430 1058.7463,-1430 1058.7463,-1640 1058.7463,-1640 1058.7463,-1646 1052.7463,-1652 1046.7463,-1652 1046.7463,-1652 889.7463,-1652 889.7463,-1652 883.7463,-1652 877.7463,-1646 877.7463,-1640 877.7463,-1640 877.7463,-1430 877.7463,-1430 877.7463,-1424 883.7463,-1418 889.7463,-1418"/>
<text text-anchor="middle" x="968.2463" y="-1639.2" font-family="Times,serif" font-size="11.00" fill="#c0c0c0">Exception</text>
</g>
<g id="clust13" class="cluster">
<title>cluster_\Anax\Session</title>
<path fill="none" stroke="#c0c0c0" d="M909.7463,-1176C909.7463,-1176 1026.7463,-1176 1026.7463,-1176 1032.7463,-1176 1038.7463,-1182 1038.7463,-1188 1038.7463,-1188 1038.7463,-1236 1038.7463,-1236 1038.7463,-1242 1032.7463,-1248 1026.7463,-1248 1026.7463,-1248 909.7463,-1248 909.7463,-1248 903.7463,-1248 897.7463,-1242 897.7463,-1236 897.7463,-1236 897.7463,-1188 897.7463,-1188 897.7463,-1182 903.7463,-1176 909.7463,-1176"/>
<text text-anchor="middle" x="968.2463" y="-1235.2" font-family="Times,serif" font-size="11.00" fill="#c0c0c0">Session</text>
</g>
<g id="clust14" class="cluster">
<title>cluster_\Anax\TextFilter</title>
<path fill="none" stroke="#c0c0c0" d="M569.8114,-744C569.8114,-744 1019.7463,-744 1019.7463,-744 1025.7463,-744 1031.7463,-750 1031.7463,-756 1031.7463,-756 1031.7463,-1156 1031.7463,-1156 1031.7463,-1162 1025.7463,-1168 1019.7463,-1168 1019.7463,-1168 569.8114,-1168 569.8114,-1168 563.8114,-1168 557.8114,-1162 557.8114,-1156 557.8114,-1156 557.8114,-756 557.8114,-756 557.8114,-750 563.8114,-744 569.8114,-744"/>
<text text-anchor="middle" x="794.7788" y="-1155.2" font-family="Times,serif" font-size="11.00" fill="#c0c0c0">TextFilter</text>
</g>
<g id="clust15" class="cluster">
<title>cluster_\Anax\TextFilter\Filter</title>
<path fill="none" stroke="#c0c0c0" d="M577.8114,-960C577.8114,-960 1009.7463,-960 1009.7463,-960 1015.7463,-960 1021.7463,-966 1021.7463,-972 1021.7463,-972 1021.7463,-1128 1021.7463,-1128 1021.7463,-1134 1015.7463,-1140 1009.7463,-1140 1009.7463,-1140 577.8114,-1140 577.8114,-1140 571.8114,-1140 565.8114,-1134 565.8114,-1128 565.8114,-1128 565.8114,-972 565.8114,-972 565.8114,-966 571.8114,-960 577.8114,-960"/>
<text text-anchor="middle" x="793.7788" y="-1127.2" font-family="Times,serif" font-size="11.00" fill="#c0c0c0">Filter</text>
</g>
<g id="clust16" class="cluster">
<title>cluster_\Anax\Url</title>
<path fill="none" stroke="#c0c0c0" d="M933.7463,-233C933.7463,-233 1002.7463,-233 1002.7463,-233 1008.7463,-233 1014.7463,-239 1014.7463,-245 1014.7463,-245 1014.7463,-347 1014.7463,-347 1014.7463,-353 1008.7463,-359 1002.7463,-359 1002.7463,-359 933.7463,-359 933.7463,-359 927.7463,-359 921.7463,-353 921.7463,-347 921.7463,-347 921.7463,-245 921.7463,-245 921.7463,-239 927.7463,-233 933.7463,-233"/>
<text text-anchor="middle" x="968.2463" y="-346.2" font-family="Times,serif" font-size="11.00" fill="#c0c0c0">Url</text>
</g>
<g id="clust17" class="cluster">
<title>cluster_\Anax\View</title>
<path fill="none" stroke="#c0c0c0" d="M550.8114,-502C550.8114,-502 1019.7463,-502 1019.7463,-502 1025.7463,-502 1031.7463,-508 1031.7463,-514 1031.7463,-514 1031.7463,-724 1031.7463,-724 1031.7463,-730 1025.7463,-736 1019.7463,-736 1019.7463,-736 550.8114,-736 550.8114,-736 544.8114,-736 538.8114,-730 538.8114,-724 538.8114,-724 538.8114,-514 538.8114,-514 538.8114,-508 544.8114,-502 550.8114,-502"/>
<text text-anchor="middle" x="785.2788" y="-723.2" font-family="Times,serif" font-size="11.00" fill="#c0c0c0">View</text>
</g>
<!-- \\Anax\\Controller\\DevelopmentController -->
<g id="node1" class="node">
<title>\\Anax\\Controller\\DevelopmentController</title>
<polygon fill="none" stroke="#000000" points="1047.2463,-2458 889.2463,-2458 889.2463,-2422 1047.2463,-2422 1047.2463,-2458"/>
<text text-anchor="middle" x="968.2463" y="-2437.2" font-family="Courier,monospace" font-size="11.00" fill="#000000">DevelopmentController</text>
</g>
<!-- \\Anax\\Commons\\ContainerInjectableInterface -->
<g id="node6" class="node">
<title>\\Anax\\Commons\\ContainerInjectableInterface</title>
<polygon fill="none" stroke="#000000" points="735.8114,-2283 529.8114,-2283 529.8114,-2247 735.8114,-2247 735.8114,-2283"/>
<text text-anchor="middle" x="632.8114" y="-2262.2" font-family="Courier,monospace" font-size="11.00" fill="#000000">ContainerInjectableInterface</text>
</g>
<!-- \\Anax\\Controller\\DevelopmentController&#45;&gt;\\Anax\\Commons\\ContainerInjectableInterface -->
<g id="edge1" class="edge">
<title>\\Anax\\Controller\\DevelopmentController&#45;&gt;\\Anax\\Commons\\ContainerInjectableInterface</title>
<path fill="none" stroke="#000000" stroke-dasharray="1,5" d="M891.4184,-2421.9372C883.3067,-2419.2702 875.2777,-2416.2941 867.7463,-2413 789.9034,-2378.9531 707.8874,-2321.6352 664.342,-2289.2276"/>
<polygon fill="none" stroke="#000000" points="666.2592,-2286.2905 656.1585,-2283.0925 662.0602,-2291.8914 666.2592,-2286.2905"/>
</g>
<!-- \\Anax\\Controller\\ErrorHandlerController -->
<g id="node2" class="node">
<title>\\Anax\\Controller\\ErrorHandlerController</title>
<polygon fill="none" stroke="#000000" points="1050.7463,-2404 885.7463,-2404 885.7463,-2368 1050.7463,-2368 1050.7463,-2404"/>
<text text-anchor="middle" x="968.2463" y="-2383.2" font-family="Courier,monospace" font-size="11.00" fill="#000000">ErrorHandlerController</text>
</g>
<!-- \\Anax\\Controller\\ErrorHandlerController&#45;&gt;\\Anax\\Commons\\ContainerInjectableInterface -->
<g id="edge2" class="edge">
<title>\\Anax\\Controller\\ErrorHandlerController&#45;&gt;\\Anax\\Commons\\ContainerInjectableInterface</title>
<path fill="none" stroke="#000000" stroke-dasharray="1,5" d="M896.8343,-2367.9334C887.007,-2365.1221 877.088,-2362.1116 867.7463,-2359 803.0175,-2337.4396 730.3634,-2307.4446 683.221,-2287.1832"/>
<polygon fill="none" stroke="#000000" points="684.4201,-2283.8887 673.8517,-2283.1401 681.6466,-2290.3158 684.4201,-2283.8887"/>
</g>
<!-- \\Anax\\Controller\\FlatFileContentController -->
<g id="node3" class="node">
<title>\\Anax\\Controller\\FlatFileContentController</title>
<polygon fill="none" stroke="#000000" points="1060.7463,-2350 875.7463,-2350 875.7463,-2314 1060.7463,-2314 1060.7463,-2350"/>
<text text-anchor="middle" x="968.2463" y="-2329.2" font-family="Courier,monospace" font-size="11.00" fill="#000000">FlatFileContentController</text>
</g>
<!-- \\Anax\\Controller\\FlatFileContentController&#45;&gt;\\Anax\\Commons\\ContainerInjectableInterface -->
<g id="edge3" class="edge">
<title>\\Anax\\Controller\\FlatFileContentController&#45;&gt;\\Anax\\Commons\\ContainerInjectableInterface</title>
<path fill="none" stroke="#000000" stroke-dasharray="1,5" d="M877.9146,-2313.9571C833.1716,-2305.0201 779.0175,-2294.2033 733.0037,-2285.0125"/>
<polygon fill="none" stroke="#000000" points="733.5052,-2281.5436 723.0133,-2283.017 732.134,-2288.408 733.5052,-2281.5436"/>
</g>
<!-- \\Anax\\Controller\\SampleController -->
<g id="node4" class="node">
<title>\\Anax\\Controller\\SampleController</title>
<polygon fill="none" stroke="#000000" points="1030.7463,-2296 905.7463,-2296 905.7463,-2260 1030.7463,-2260 1030.7463,-2296"/>
<text text-anchor="middle" x="968.2463" y="-2275.2" font-family="Courier,monospace" font-size="11.00" fill="#000000">SampleController</text>
</g>
<!-- \\Anax\\Controller\\SampleController&#45;&gt;\\Anax\\Commons\\ContainerInjectableInterface -->
<g id="edge4" class="edge">
<title>\\Anax\\Controller\\SampleController&#45;&gt;\\Anax\\Commons\\ContainerInjectableInterface</title>
<path fill="none" stroke="#000000" stroke-dasharray="1,5" d="M905.547,-2275.57C860.8334,-2273.8371 799.4562,-2271.4584 746.2484,-2269.3963"/>
<polygon fill="none" stroke="#000000" points="746.1974,-2265.8918 736.0693,-2269.0018 745.9262,-2272.8866 746.1974,-2265.8918"/>
</g>
<!-- \\Anax\\Page\\Page -->
<g id="node5" class="node">
<title>\\Anax\\Page\\Page</title>
<polygon fill="none" stroke="#000000" points="995.2463,-2216 941.2463,-2216 941.2463,-2180 995.2463,-2180 995.2463,-2216"/>
<text text-anchor="middle" x="968.2463" y="-2195.2" font-family="Courier,monospace" font-size="11.00" fill="#000000">Page</text>
</g>
<!-- \\Anax\\Page\\Page&#45;&gt;\\Anax\\Commons\\ContainerInjectableInterface -->
<g id="edge5" class="edge">
<title>\\Anax\\Page\\Page&#45;&gt;\\Anax\\Commons\\ContainerInjectableInterface</title>
<path fill="none" stroke="#000000" stroke-dasharray="1,5" d="M941.0385,-2205.3407C908.5403,-2213.9401 852.4509,-2228.2489 803.7463,-2238 785.1822,-2241.7167 765.4,-2245.2396 746.1244,-2248.4389"/>
<polygon fill="none" stroke="#000000" points="745.402,-2245.0105 736.0997,-2250.0818 746.5342,-2251.9184 745.402,-2245.0105"/>
</g>
<!-- \\Anax\\Commons\\ContainerInjectableTrait -->
<g id="node7" class="node">
<title>\\Anax\\Commons\\ContainerInjectableTrait</title>
<polygon fill="none" stroke="#000000" points="722.3114,-2229 543.3114,-2229 543.3114,-2193 722.3114,-2193 722.3114,-2229"/>
<text text-anchor="middle" x="632.8114" y="-2208.2" font-family="Courier,monospace" font-size="11.00" fill="#000000">ContainerInjectableTrait</text>
</g>
<!-- \\Anax\\Configure\\Configuration -->
<g id="node8" class="node">
<title>\\Anax\\Configure\\Configuration</title>
<polygon fill="none" stroke="#000000" points="684.8114,-466 580.8114,-466 580.8114,-430 684.8114,-430 684.8114,-466"/>
<text text-anchor="middle" x="632.8114" y="-445.2" font-family="Courier,monospace" font-size="11.00" fill="#000000">Configuration</text>
</g>
<!-- \\Anax\\Configure\\Exception -->
<g id="node9" class="node">
<title>\\Anax\\Configure\\Exception</title>
<polygon fill="none" stroke="#000000" points="671.3114,-412 594.3114,-412 594.3114,-376 671.3114,-376 671.3114,-412"/>
<text text-anchor="middle" x="632.8114" y="-391.2" font-family="Courier,monospace" font-size="11.00" fill="#000000">Exception</text>
</g>
<!-- \\Exception -->
<g id="node46" class="node">
<title>\\Exception</title>
<ellipse fill="none" stroke="#000000" cx="632.8114" cy="-18" rx="50.0912" ry="18"/>
<text text-anchor="middle" x="632.8114" y="-14.3" font-family="Times,serif" font-size="14.00" fill="#c0c0c0">\Exception</text>
</g>
<!-- \\Anax\\Configure\\Exception&#45;&gt;\\Exception -->
<g id="edge6" class="edge">
<title>\\Anax\\Configure\\Exception&#45;&gt;\\Exception</title>
<path fill="none" stroke="#000000" d="M671.6013,-400.7114C719.2911,-406.441 798.4748,-407.2001 835.7463,-358 871.4401,-310.8824 869.6365,-140.4311 835.7463,-92 803.6971,-46.1998 740.1668,-28.647 692.6829,-21.9743"/>
<polygon fill="none" stroke="#000000" points="692.8714,-18.47 682.5084,-20.6744 691.9842,-25.4136 692.8714,-18.47"/>
</g>
<!-- \\Anax\\Configure\\ConfigureInterface -->
<g id="node10" class="node">
<title>\\Anax\\Configure\\ConfigureInterface</title>
<polygon fill="none" stroke="#000000" points="701.8114,-358 563.8114,-358 563.8114,-322 701.8114,-322 701.8114,-358"/>
<text text-anchor="middle" x="632.8114" y="-337.2" font-family="Courier,monospace" font-size="11.00" fill="#000000">ConfigureInterface</text>
</g>
<!-- \\Anax\\Configure\\Configure2Trait -->
<g id="node11" class="node">
<title>\\Anax\\Configure\\Configure2Trait</title>
<polygon fill="none" stroke="#000000" points="691.8114,-304 573.8114,-304 573.8114,-268 691.8114,-268 691.8114,-304"/>
<text text-anchor="middle" x="632.8114" y="-283.2" font-family="Courier,monospace" font-size="11.00" fill="#000000">Configure2Trait</text>
</g>
<!-- \\Anax\\Configure\\ConfigureTrait -->
<g id="node12" class="node">
<title>\\Anax\\Configure\\ConfigureTrait</title>
<polygon fill="none" stroke="#000000" points="688.3114,-250 577.3114,-250 577.3114,-214 688.3114,-214 688.3114,-250"/>
<text text-anchor="middle" x="632.8114" y="-229.2" font-family="Courier,monospace" font-size="11.00" fill="#000000">ConfigureTrait</text>
</g>
<!-- \\Anax\\DI\\Exception\\Exception -->
<g id="node13" class="node">
<title>\\Anax\\DI\\Exception\\Exception</title>
<polygon fill="none" stroke="#000000" points="1006.7463,-2108 929.7463,-2108 929.7463,-2072 1006.7463,-2072 1006.7463,-2108"/>
<text text-anchor="middle" x="968.2463" y="-2087.2" font-family="Courier,monospace" font-size="11.00" fill="#000000">Exception</text>
</g>
<!-- \\Anax\\DI\\Exception\\Exception&#45;&gt;\\Exception -->
<g id="edge12" class="edge">
<title>\\Anax\\DI\\Exception\\Exception&#45;&gt;\\Exception</title>
<path fill="none" stroke="#000000" d="M929.5265,-2090.1672C907.8279,-2088.0281 882.281,-2081.3338 867.7463,-2063 731.002,-1890.5135 931.6168,-262.1639 803.7463,-83 778.265,-47.2974 730.5037,-31.1992 691.9309,-23.9437"/>
<polygon fill="none" stroke="#000000" points="692.282,-20.4527 681.8327,-22.2028 691.0927,-27.3509 692.282,-20.4527"/>
</g>
<!-- \\Psr\\Container\\ContainerExceptionInterface -->
<g id="node48" class="node">
<title>\\Psr\\Container\\ContainerExceptionInterface</title>
<ellipse fill="none" stroke="#000000" cx="632.8114" cy="-164" rx="168.97" ry="18"/>
<text text-anchor="middle" x="632.8114" y="-160.3" font-family="Times,serif" font-size="14.00" fill="#c0c0c0">\Psr\Container\ContainerExceptionInterface</text>
</g>
<!-- \\Anax\\DI\\Exception\\Exception&#45;&gt;\\Psr\\Container\\ContainerExceptionInterface -->
<g id="edge13" class="edge">
<title>\\Anax\\DI\\Exception\\Exception&#45;&gt;\\Psr\\Container\\ContainerExceptionInterface</title>
<path fill="none" stroke="#000000" stroke-dasharray="1,5" d="M929.5404,-2090.1562C907.8466,-2088.0132 882.2999,-2081.3188 867.7463,-2063 739.0443,-1901.0018 935.9576,-361.147 803.7463,-202 796.0061,-192.6829 786.5346,-185.3455 776.0582,-179.5973"/>
<polygon fill="none" stroke="#000000" points="777.5527,-176.4318 767.0376,-175.134 774.4483,-182.7058 777.5527,-176.4318"/>
</g>
<!-- \\Anax\\DI\\Exception\\NotFoundException -->
<g id="node14" class="node">
<title>\\Anax\\DI\\Exception\\NotFoundException</title>
<polygon fill="none" stroke="#000000" points="1033.7463,-2054 902.7463,-2054 902.7463,-2018 1033.7463,-2018 1033.7463,-2054"/>
<text text-anchor="middle" x="968.2463" y="-2033.2" font-family="Courier,monospace" font-size="11.00" fill="#000000">NotFoundException</text>
</g>
<!-- \\Anax\\DI\\Exception\\NotFoundException&#45;&gt;\\Exception -->
<g id="edge14" class="edge">
<title>\\Anax\\DI\\Exception\\NotFoundException&#45;&gt;\\Exception</title>
<path fill="none" stroke="#000000" d="M902.7183,-2034.3449C889.3069,-2030.8522 876.6023,-2024.6386 867.7463,-2014 730.4027,-1849.0109 928.5272,-257.6836 803.7463,-83 778.2504,-47.3078 730.4902,-31.2088 691.9216,-23.9504"/>
<polygon fill="none" stroke="#000000" points="692.274,-20.4595 681.8246,-22.2086 691.084,-27.3577 692.274,-20.4595"/>
</g>
<!-- \\Psr\\Container\\NotFoundExceptionInterface -->
<g id="node49" class="node">
<title>\\Psr\\Container\\NotFoundExceptionInterface</title>
<ellipse fill="none" stroke="#000000" cx="632.8114" cy="-110" rx="170.8697" ry="18"/>
<text text-anchor="middle" x="632.8114" y="-106.3" font-family="Times,serif" font-size="14.00" fill="#c0c0c0">\Psr\Container\NotFoundExceptionInterface</text>
</g>
<!-- \\Anax\\DI\\Exception\\NotFoundException&#45;&gt;\\Psr\\Container\\NotFoundExceptionInterface -->
<g id="edge15" class="edge">
<title>\\Anax\\DI\\Exception\\NotFoundException&#45;&gt;\\Psr\\Container\\NotFoundExceptionInterface</title>
<path fill="none" stroke="#000000" stroke-dasharray="1,5" d="M902.7257,-2034.3387C889.314,-2030.8463 876.6074,-2024.6344 867.7463,-2014 734.1629,-1853.6832 941.9881,-293.3176 803.7463,-137 799.6023,-132.3142 795.0018,-128.2121 790.0464,-124.6295"/>
<polygon fill="none" stroke="#000000" points="791.6971,-121.5304 781.3896,-119.0797 787.9192,-127.4234 791.6971,-121.5304"/>
</g>
<!-- \\Anax\\DI\\DI -->
<g id="node15" class="node">
<title>\\Anax\\DI\\DI</title>
<polygon fill="none" stroke="#000000" points="389.8766,-1946 335.8766,-1946 335.8766,-1910 389.8766,-1910 389.8766,-1946"/>
<text text-anchor="middle" x="362.8766" y="-1925.2" font-family="Courier,monospace" font-size="11.00" fill="#000000">DI</text>
</g>
<!-- \\Psr\\Container\\ContainerInterface -->
<g id="node47" class="node">
<title>\\Psr\\Container\\ContainerInterface</title>
<ellipse fill="none" stroke="#000000" cx="131.9383" cy="-996" rx="131.8766" ry="18"/>
<text text-anchor="middle" x="131.9383" y="-992.3" font-family="Times,serif" font-size="14.00" fill="#c0c0c0">\Psr\Container\ContainerInterface</text>
</g>
<!-- \\Anax\\DI\\DI&#45;&gt;\\Psr\\Container\\ContainerInterface -->
<g id="edge7" class="edge">
<title>\\Anax\\DI\\DI&#45;&gt;\\Psr\\Container\\ContainerInterface</title>
<path fill="none" stroke="#000000" stroke-dasharray="1,5" d="M358.3671,-1909.8008C329.8006,-1794.5149 174.0755,-1166.0536 138.9704,-1024.3797"/>
<polygon fill="none" stroke="#000000" points="142.2792,-1023.1805 136.4767,-1014.3158 135.4847,-1024.8641 142.2792,-1023.1805"/>
</g>
<!-- \\Anax\\DI\\DIFactoryConfig -->
<g id="node16" class="node">
<title>\\Anax\\DI\\DIFactoryConfig</title>
<polygon fill="none" stroke="#000000" points="691.8114,-1946 573.8114,-1946 573.8114,-1910 691.8114,-1910 691.8114,-1946"/>
<text text-anchor="middle" x="632.8114" y="-1925.2" font-family="Courier,monospace" font-size="11.00" fill="#000000">DIFactoryConfig</text>
</g>
<!-- \\Anax\\DI\\DIFactoryConfig&#45;&gt;\\Anax\\DI\\DI -->
<g id="edge8" class="edge">
<title>\\Anax\\DI\\DIFactoryConfig&#45;&gt;\\Anax\\DI\\DI</title>
<path fill="none" stroke="#000000" d="M573.5731,-1928C520.7001,-1928 444.9022,-1928 400.0983,-1928"/>
<polygon fill="none" stroke="#000000" points="399.9482,-1924.5001 389.9481,-1928 399.9481,-1931.5001 399.9482,-1924.5001"/>
</g>
<!-- \\Anax\\DI\\DIFactoryConfig&#45;&gt;\\Psr\\Container\\ContainerInterface -->
<g id="edge9" class="edge">
<title>\\Anax\\DI\\DIFactoryConfig&#45;&gt;\\Psr\\Container\\ContainerInterface</title>
<path fill="none" stroke="#000000" stroke-dasharray="1,5" d="M581.2545,-1909.8794C541.1978,-1892.839 488.1758,-1863.1246 461.8766,-1818 363.5869,-1649.353 558.0385,-60.1919 362.8766,-64"/>
</g>
<!-- \\Anax\\DI\\DIMagic -->
<g id="node17" class="node">
<title>\\Anax\\DI\\DIMagic</title>
<polygon fill="none" stroke="#000000" points="1000.2463,-2000 936.2463,-2000 936.2463,-1964 1000.2463,-1964 1000.2463,-2000"/>
<text text-anchor="middle" x="968.2463" y="-1979.2" font-family="Courier,monospace" font-size="11.00" fill="#000000">DIMagic</text>
</g>
<!-- \\Anax\\DI\\DIMagic&#45;&gt;\\Anax\\DI\\DIFactoryConfig -->
<g id="edge10" class="edge">
<title>\\Anax\\DI\\DIMagic&#45;&gt;\\Anax\\DI\\DIFactoryConfig</title>
<path fill="none" stroke="#000000" d="M936.0833,-1976.8223C882.5536,-1968.2048 773.9979,-1950.7289 702.345,-1939.1939"/>
<polygon fill="none" stroke="#000000" points="702.4811,-1935.6708 692.0519,-1937.5368 701.3685,-1942.5818 702.4811,-1935.6708"/>
</g>
<!-- \\Anax\\DI\\DIMagic&#45;&gt;\\Psr\\Container\\ContainerInterface -->
<g id="edge11" class="edge">
<title>\\Anax\\DI\\DIMagic&#45;&gt;\\Psr\\Container\\ContainerInterface</title>
<path fill="none" stroke="#000000" stroke-dasharray="1,5" d="M936.1813,-1982.687C913.2907,-1981.2841 883.815,-1975.2301 867.7463,-1955 738.3009,-1792.0323 950.2544,-230.8172 803.7463,-83 734.715,-13.352 460.9199,-62.0869 362.8766,-64"/>
<path fill="none" stroke="#000000" stroke-dasharray="1,5" d="M362.8766,-64C171.8357,-67.714 137.7549,-812.1662 132.7183,-967.7159"/>
<polygon fill="none" stroke="#000000" points="129.2148,-967.776 132.4041,-977.8795 136.2115,-967.9924 129.2148,-967.776"/>
</g>
<!-- \\Anax\\DI\\DIMagicTrait -->
<g id="node18" class="node">
<title>\\Anax\\DI\\DIMagicTrait</title>
<polygon fill="none" stroke="#000000" points="1017.2463,-1946 919.2463,-1946 919.2463,-1910 1017.2463,-1910 1017.2463,-1946"/>
<text text-anchor="middle" x="968.2463" y="-1925.2" font-family="Courier,monospace" font-size="11.00" fill="#000000">DIMagicTrait</text>
</g>
<!-- \\Anax\\Request\\Request -->
<g id="node19" class="node">
<title>\\Anax\\Request\\Request</title>
<polygon fill="none" stroke="#000000" points="1000.2463,-1866 936.2463,-1866 936.2463,-1830 1000.2463,-1830 1000.2463,-1866"/>
<text text-anchor="middle" x="968.2463" y="-1845.2" font-family="Courier,monospace" font-size="11.00" fill="#000000">Request</text>
</g>
<!-- \\Anax\\Response\\Exception -->
<g id="node20" class="node">
<title>\\Anax\\Response\\Exception</title>
<polygon fill="none" stroke="#000000" points="1006.7463,-1732 929.7463,-1732 929.7463,-1696 1006.7463,-1696 1006.7463,-1732"/>
<text text-anchor="middle" x="968.2463" y="-1711.2" font-family="Courier,monospace" font-size="11.00" fill="#000000">Exception</text>
</g>
<!-- \\Anax\\Response\\Exception&#45;&gt;\\Exception -->
<g id="edge16" class="edge">
<title>\\Anax\\Response\\Exception&#45;&gt;\\Exception</title>
<path fill="none" stroke="#000000" d="M929.5254,-1702.1741C907.3924,-1693.2442 881.3958,-1678.5859 867.7463,-1656 775.3776,-1503.1569 920.5309,-185.1086 803.7463,-50 776.4955,-18.4735 728.9409,-11.6403 690.8977,-12.0377"/>
<polygon fill="none" stroke="#000000" points="690.3439,-8.5516 680.4446,-12.3271 690.5376,-15.5489 690.3439,-8.5516"/>
</g>
<!-- \\Anax\\Response\\Response -->
<g id="node21" class="node">
<title>\\Anax\\Response\\Response</title>
<polygon fill="none" stroke="#000000" points="668.3114,-1786 597.3114,-1786 597.3114,-1750 668.3114,-1750 668.3114,-1786"/>
<text text-anchor="middle" x="632.8114" y="-1765.2" font-family="Courier,monospace" font-size="11.00" fill="#000000">Response</text>
</g>
<!-- \\Anax\\Response\\ResponseUtility -->
<g id="node22" class="node">
<title>\\Anax\\Response\\ResponseUtility</title>
<polygon fill="none" stroke="#000000" points="1027.2463,-1786 909.2463,-1786 909.2463,-1750 1027.2463,-1750 1027.2463,-1786"/>
<text text-anchor="middle" x="968.2463" y="-1765.2" font-family="Courier,monospace" font-size="11.00" fill="#000000">ResponseUtility</text>
</g>
<!-- \\Anax\\Response\\ResponseUtility&#45;&gt;\\Anax\\Commons\\ContainerInjectableInterface -->
<g id="edge18" class="edge">
<title>\\Anax\\Response\\ResponseUtility&#45;&gt;\\Anax\\Commons\\ContainerInjectableInterface</title>
<path fill="none" stroke="#000000" stroke-dasharray="1,5" d="M909.0519,-1786.0566C893.3998,-1793.5586 878.0245,-1803.9084 867.7463,-1818 756.4758,-1970.553 936.8993,-2104.1202 803.7463,-2238 788.2213,-2253.6096 767.5789,-2262.4953 746.0206,-2267.2273"/>
<polygon fill="none" stroke="#000000" points="745.2371,-2263.8135 736.0661,-2269.1185 746.5436,-2270.6905 745.2371,-2263.8135"/>
</g>
<!-- \\Anax\\Response\\ResponseUtility&#45;&gt;\\Anax\\Response\\Response -->
<g id="edge17" class="edge">
<title>\\Anax\\Response\\ResponseUtility&#45;&gt;\\Anax\\Response\\Response</title>
<path fill="none" stroke="#000000" d="M909.0494,-1768C843.4016,-1768 738.8801,-1768 678.9969,-1768"/>
<polygon fill="none" stroke="#000000" points="678.7113,-1764.5001 668.7113,-1768 678.7113,-1771.5001 678.7113,-1764.5001"/>
</g>
<!-- \\Anax\\Route\\Exception\\ConfigurationException -->
<g id="node23" class="node">
<title>\\Anax\\Route\\Exception\\ConfigurationException</title>
<polygon fill="none" stroke="#000000" points="1050.7463,-1624 885.7463,-1624 885.7463,-1588 1050.7463,-1588 1050.7463,-1624"/>
<text text-anchor="middle" x="968.2463" y="-1603.2" font-family="Courier,monospace" font-size="11.00" fill="#000000">ConfigurationException</text>
</g>
<!-- \\Anax\\Route\\Exception\\ConfigurationException&#45;&gt;\\Exception -->
<g id="edge19" class="edge">
<title>\\Anax\\Route\\Exception\\ConfigurationException&#45;&gt;\\Exception</title>
<path fill="none" stroke="#000000" d="M885.3833,-1593.6246C878.6609,-1589.8537 872.6014,-1585.0646 867.7463,-1579 761.4789,-1446.2595 915.0695,-178.5299 803.7463,-50 776.4639,-18.5008 728.9118,-11.6654 690.8776,-12.0551"/>
<polygon fill="none" stroke="#000000" points="690.3272,-8.5688 680.4271,-12.3421 690.5195,-15.5662 690.3272,-8.5688"/>
</g>
<!-- \\Anax\\Route\\Exception\\ForbiddenException -->
<g id="node24" class="node">
<title>\\Anax\\Route\\Exception\\ForbiddenException</title>
<polygon fill="none" stroke="#000000" points="1037.2463,-1570 899.2463,-1570 899.2463,-1534 1037.2463,-1534 1037.2463,-1570"/>
<text text-anchor="middle" x="968.2463" y="-1549.2" font-family="Courier,monospace" font-size="11.00" fill="#000000">ForbiddenException</text>
</g>
<!-- \\Anax\\Route\\Exception\\ForbiddenException&#45;&gt;\\Exception -->
<g id="edge20" class="edge">
<title>\\Anax\\Route\\Exception\\ForbiddenException&#45;&gt;\\Exception</title>
<path fill="none" stroke="#000000" d="M899.2211,-1545.7573C887.0742,-1541.5409 875.7705,-1535.0075 867.7463,-1525 765.1274,-1397.0176 911.2397,-173.9165 803.7463,-50 776.4398,-18.5217 728.8896,-11.6847 690.8622,-12.0684"/>
<polygon fill="none" stroke="#000000" points="690.3146,-8.582 680.4138,-12.3537 690.5057,-15.5794 690.3146,-8.582"/>
</g>
<!-- \\Anax\\Route\\Exception\\InternalErrorException -->
<g id="node25" class="node">
<title>\\Anax\\Route\\Exception\\InternalErrorException</title>
<polygon fill="none" stroke="#000000" points="1050.7463,-1516 885.7463,-1516 885.7463,-1480 1050.7463,-1480 1050.7463,-1516"/>
<text text-anchor="middle" x="968.2463" y="-1495.2" font-family="Courier,monospace" font-size="11.00" fill="#000000">InternalErrorException</text>
</g>
<!-- \\Anax\\Route\\Exception\\InternalErrorException&#45;&gt;\\Exception -->
<g id="edge21" class="edge">
<title>\\Anax\\Route\\Exception\\InternalErrorException&#45;&gt;\\Exception</title>
<path fill="none" stroke="#000000" d="M885.4033,-1485.6085C878.6769,-1481.8408 872.611,-1477.0569 867.7463,-1471 768.7756,-1347.7755 907.4101,-169.3033 803.7463,-50 776.4139,-18.5441 728.8657,-11.7054 690.8457,-12.0828"/>
<polygon fill="none" stroke="#000000" points="690.3009,-8.5961 680.3995,-12.3661 690.4908,-15.5936 690.3009,-8.5961"/>
</g>
<!-- \\Anax\\Route\\Exception\\NotFoundException -->
<g id="node26" class="node">
<title>\\Anax\\Route\\Exception\\NotFoundException</title>
<polygon fill="none" stroke="#000000" points="1033.7463,-1462 902.7463,-1462 902.7463,-1426 1033.7463,-1426 1033.7463,-1462"/>
<text text-anchor="middle" x="968.2463" y="-1441.2" font-family="Courier,monospace" font-size="11.00" fill="#000000">NotFoundException</text>
</g>
<!-- \\Anax\\Route\\Exception\\NotFoundException&#45;&gt;\\Exception -->
<g id="edge22" class="edge">
<title>\\Anax\\Route\\Exception\\NotFoundException&#45;&gt;\\Exception</title>
<path fill="none" stroke="#000000" d="M902.563,-1442.1896C889.2425,-1438.6885 876.6162,-1432.5105 867.7463,-1422 769.321,-1305.3709 903.9353,-165.1175 803.7463,-50 776.3887,-18.5661 728.8425,-11.7256 690.8297,-12.0967"/>
<polygon fill="none" stroke="#000000" points="690.2877,-8.61 680.3856,-12.3782 690.4763,-15.6074 690.2877,-8.61"/>
</g>
<!-- \\Anax\\Route\\Route -->
<g id="node27" class="node">
<title>\\Anax\\Route\\Route</title>
<polygon fill="none" stroke="#000000" points="995.2463,-1408 941.2463,-1408 941.2463,-1372 995.2463,-1372 995.2463,-1408"/>
<text text-anchor="middle" x="968.2463" y="-1387.2" font-family="Courier,monospace" font-size="11.00" fill="#000000">Route</text>
</g>
<!-- \\Anax\\Route\\RouteHandler -->
<g id="node28" class="node">
<title>\\Anax\\Route\\RouteHandler</title>
<polygon fill="none" stroke="#000000" points="1017.2463,-1354 919.2463,-1354 919.2463,-1318 1017.2463,-1318 1017.2463,-1354"/>
<text text-anchor="middle" x="968.2463" y="-1333.2" font-family="Courier,monospace" font-size="11.00" fill="#000000">RouteHandler</text>
</g>
<!-- \\Anax\\Route\\RouteMatcher -->
<g id="node29" class="node">
<title>\\Anax\\Route\\RouteMatcher</title>
<polygon fill="none" stroke="#000000" points="1017.2463,-1300 919.2463,-1300 919.2463,-1264 1017.2463,-1264 1017.2463,-1300"/>
<text text-anchor="middle" x="968.2463" y="-1279.2" font-family="Courier,monospace" font-size="11.00" fill="#000000">RouteMatcher</text>
</g>
<!-- \\Anax\\Session\\SessionInterface -->
<g id="node30" class="node">
<title>\\Anax\\Session\\SessionInterface</title>
<polygon fill="none" stroke="#000000" points="1030.7463,-1220 905.7463,-1220 905.7463,-1184 1030.7463,-1184 1030.7463,-1220"/>
<text text-anchor="middle" x="968.2463" y="-1199.2" font-family="Courier,monospace" font-size="11.00" fill="#000000">SessionInterface</text>
</g>
<!-- \\Anax\\TextFilter\\Filter\\Exception -->
<g id="node31" class="node">
<title>\\Anax\\TextFilter\\Filter\\Exception</title>
<polygon fill="none" stroke="#000000" points="1006.7463,-1004 929.7463,-1004 929.7463,-968 1006.7463,-968 1006.7463,-1004"/>
<text text-anchor="middle" x="968.2463" y="-983.2" font-family="Courier,monospace" font-size="11.00" fill="#000000">Exception</text>
</g>
<!-- \\Anax\\TextFilter\\Filter\\Exception&#45;&gt;\\Exception -->
<g id="edge24" class="edge">
<title>\\Anax\\TextFilter\\Filter\\Exception&#45;&gt;\\Exception</title>
<path fill="none" stroke="#000000" d="M929.7074,-988.001C908.2118,-986.8842 882.8104,-981.4342 867.7463,-964 734.6265,-809.9366 939.1955,-202.0194 803.7463,-50 776.1162,-18.9899 728.8212,-12.067 690.9745,-12.2986"/>
<polygon fill="none" stroke="#000000" points="690.4907,-8.8087 680.5745,-12.5395 690.6529,-15.8069 690.4907,-8.8087"/>
</g>
<!-- \\Anax\\TextFilter\\Filter\\Frontmatter -->
<g id="node32" class="node">
<title>\\Anax\\TextFilter\\Filter\\Frontmatter</title>
<polygon fill="none" stroke="#000000" points="1013.7463,-1112 922.7463,-1112 922.7463,-1076 1013.7463,-1076 1013.7463,-1112"/>
<text text-anchor="middle" x="968.2463" y="-1091.2" font-family="Courier,monospace" font-size="11.00" fill="#000000">Frontmatter</text>
</g>
<!-- \\Anax\\TextFilter\\Filter\\FilterInterface -->
<g id="node34" class="node">
<title>\\Anax\\TextFilter\\Filter\\FilterInterface</title>
<polygon fill="none" stroke="#000000" points="691.8114,-1085 573.8114,-1085 573.8114,-1049 691.8114,-1049 691.8114,-1085"/>
<text text-anchor="middle" x="632.8114" y="-1064.2" font-family="Courier,monospace" font-size="11.00" fill="#000000">FilterInterface</text>
</g>
<!-- \\Anax\\TextFilter\\Filter\\Frontmatter&#45;&gt;\\Anax\\TextFilter\\Filter\\FilterInterface -->
<g id="edge25" class="edge">
<title>\\Anax\\TextFilter\\Filter\\Frontmatter&#45;&gt;\\Anax\\TextFilter\\Filter\\FilterInterface</title>
<path fill="none" stroke="#000000" stroke-dasharray="1,5" d="M922.6589,-1090.3306C865.868,-1085.7593 768.2728,-1077.9036 702.182,-1072.5838"/>
<polygon fill="none" stroke="#000000" points="702.105,-1069.0664 691.8564,-1071.7527 701.5433,-1076.0438 702.105,-1069.0664"/>
</g>
<!-- \\Anax\\TextFilter\\Filter\\Variable -->
<g id="node33" class="node">
<title>\\Anax\\TextFilter\\Filter\\Variable</title>
<polygon fill="none" stroke="#000000" points="1003.7463,-1058 932.7463,-1058 932.7463,-1022 1003.7463,-1022 1003.7463,-1058"/>
<text text-anchor="middle" x="968.2463" y="-1037.2" font-family="Courier,monospace" font-size="11.00" fill="#000000">Variable</text>
</g>
<!-- \\Anax\\TextFilter\\Filter\\Variable&#45;&gt;\\Anax\\TextFilter\\Filter\\FilterInterface -->
<g id="edge26" class="edge">
<title>\\Anax\\TextFilter\\Filter\\Variable&#45;&gt;\\Anax\\TextFilter\\Filter\\FilterInterface</title>
<path fill="none" stroke="#000000" stroke-dasharray="1,5" d="M932.6664,-1042.8639C877.946,-1047.2685 772.119,-1055.7868 701.9607,-1061.434"/>
<polygon fill="none" stroke="#000000" points="701.5655,-1057.9544 691.8786,-1062.2455 702.1272,-1064.9318 701.5655,-1057.9544"/>
</g>
<!-- \\Anax\\TextFilter\\Exception -->
<g id="node35" class="node">
<title>\\Anax\\TextFilter\\Exception</title>
<polygon fill="none" stroke="#000000" points="1006.7463,-950 929.7463,-950 929.7463,-914 1006.7463,-914 1006.7463,-950"/>
<text text-anchor="middle" x="968.2463" y="-929.2" font-family="Courier,monospace" font-size="11.00" fill="#000000">Exception</text>
</g>
<!-- \\Anax\\TextFilter\\Exception&#45;&gt;\\Exception -->
<g id="edge23" class="edge">
<title>\\Anax\\TextFilter\\Exception&#45;&gt;\\Exception</title>
<path fill="none" stroke="#000000" d="M929.5585,-931.9126C908.0117,-929.6676 882.6087,-922.952 867.7463,-905 746.2418,-758.2385 930.8377,-191.9508 803.7463,-50 776.0418,-19.0564 728.7523,-12.1285 690.9267,-12.3413"/>
<polygon fill="none" stroke="#000000" points="690.4512,-8.851 680.533,-12.5766 690.6097,-15.8492 690.4512,-8.851"/>
</g>
<!-- \\Anax\\TextFilter\\TextFilter -->
<g id="node36" class="node">
<title>\\Anax\\TextFilter\\TextFilter</title>
<polygon fill="none" stroke="#000000" points="1010.2463,-896 926.2463,-896 926.2463,-860 1010.2463,-860 1010.2463,-896"/>
<text text-anchor="middle" x="968.2463" y="-875.2" font-family="Courier,monospace" font-size="11.00" fill="#000000">TextFilter</text>
</g>
<!-- \\Anax\\TextFilter\\TShortcode -->
<g id="node37" class="node">
<title>\\Anax\\TextFilter\\TShortcode</title>
<polygon fill="none" stroke="#000000" points="1010.2463,-842 926.2463,-842 926.2463,-806 1010.2463,-806 1010.2463,-842"/>
<text text-anchor="middle" x="968.2463" y="-821.2" font-family="Courier,monospace" font-size="11.00" fill="#000000">TShortcode</text>
</g>
<!-- \\Anax\\TextFilter\\TTextUtilities -->
<g id="node38" class="node">
<title>\\Anax\\TextFilter\\TTextUtilities</title>
<polygon fill="none" stroke="#000000" points="1023.7463,-788 912.7463,-788 912.7463,-752 1023.7463,-752 1023.7463,-788"/>
<text text-anchor="middle" x="968.2463" y="-767.2" font-family="Courier,monospace" font-size="11.00" fill="#000000">TTextUtilities</text>
</g>
<!-- \\Anax\\Url\\Exception -->
<g id="node39" class="node">
<title>\\Anax\\Url\\Exception</title>
<polygon fill="none" stroke="#000000" points="1006.7463,-277 929.7463,-277 929.7463,-241 1006.7463,-241 1006.7463,-277"/>
<text text-anchor="middle" x="968.2463" y="-256.2" font-family="Courier,monospace" font-size="11.00" fill="#000000">Exception</text>
</g>
<!-- \\Anax\\Url\\Exception&#45;&gt;\\Exception -->
<g id="edge27" class="edge">
<title>\\Anax\\Url\\Exception&#45;&gt;\\Exception</title>
<path fill="none" stroke="#000000" d="M959.7234,-240.8618C939.2685,-199.5009 883.1363,-98.0782 803.7463,-50 770.4867,-29.8582 727.4303,-21.8834 692.8517,-18.9313"/>
<polygon fill="none" stroke="#000000" points="693.107,-15.4407 682.877,-18.197 692.5931,-22.4218 693.107,-15.4407"/>
</g>
<!-- \\Anax\\Url\\Url -->
<g id="node40" class="node">
<title>\\Anax\\Url\\Url</title>
<polygon fill="none" stroke="#000000" points="995.2463,-331 941.2463,-331 941.2463,-295 995.2463,-295 995.2463,-331"/>
<text text-anchor="middle" x="968.2463" y="-310.2" font-family="Courier,monospace" font-size="11.00" fill="#000000">Url</text>
</g>
<!-- \\Anax\\Url\\Url&#45;&gt;\\Anax\\Configure\\ConfigureInterface -->
<g id="edge28" class="edge">
<title>\\Anax\\Url\\Url&#45;&gt;\\Anax\\Configure\\ConfigureInterface</title>
<path fill="none" stroke="#000000" stroke-dasharray="1,5" d="M941.0803,-315.1867C891.8486,-319.1494 786.1522,-327.6572 712.3255,-333.5997"/>
<polygon fill="none" stroke="#000000" points="711.8159,-330.1293 702.1289,-334.4205 712.3776,-337.1068 711.8159,-330.1293"/>
</g>
<!-- \\Anax\\View\\Exception -->
<g id="node41" class="node">
<title>\\Anax\\View\\Exception</title>
<polygon fill="none" stroke="#000000" points="1006.7463,-546 929.7463,-546 929.7463,-510 1006.7463,-510 1006.7463,-546"/>
<text text-anchor="middle" x="968.2463" y="-525.2" font-family="Courier,monospace" font-size="11.00" fill="#000000">Exception</text>
</g>
<!-- \\Anax\\View\\Exception&#45;&gt;\\Exception -->
<g id="edge29" class="edge">
<title>\\Anax\\View\\Exception&#45;&gt;\\Exception</title>
<path fill="none" stroke="#000000" d="M954.2247,-509.8173C932.36,-480.5498 890.3157,-420.441 867.7463,-363 815.8207,-230.8458 904.9792,-149.5634 803.7463,-50 774.6262,-21.3602 728.5489,-14.0534 691.5681,-13.5307"/>
<polygon fill="none" stroke="#000000" points="691.3933,-10.0309 681.4004,-13.551 691.4074,-17.0309 691.3933,-10.0309"/>
</g>
<!-- \\Anax\\View\\View -->
<g id="node42" class="node">
<title>\\Anax\\View\\View</title>
<polygon fill="none" stroke="#000000" points="995.2463,-654 941.2463,-654 941.2463,-618 995.2463,-618 995.2463,-654"/>
<text text-anchor="middle" x="968.2463" y="-633.2" font-family="Courier,monospace" font-size="11.00" fill="#000000">View</text>
</g>
<!-- \\Anax\\View\\ViewCollection -->
<g id="node43" class="node">
<title>\\Anax\\View\\ViewCollection</title>
<polygon fill="none" stroke="#000000" points="1023.7463,-708 912.7463,-708 912.7463,-672 1023.7463,-672 1023.7463,-708"/>
<text text-anchor="middle" x="968.2463" y="-687.2" font-family="Courier,monospace" font-size="11.00" fill="#000000">ViewCollection</text>
</g>
<!-- \\Anax\\View\\ViewCollection&#45;&gt;\\Anax\\Commons\\ContainerInjectableInterface -->
<g id="edge30" class="edge">
<title>\\Anax\\View\\ViewCollection&#45;&gt;\\Anax\\Commons\\ContainerInjectableInterface</title>
<path fill="none" stroke="#000000" stroke-dasharray="1,5" d="M912.5396,-705.3239C895.3128,-712.9011 878.1473,-723.9825 867.7463,-740 777.0169,-879.723 914.6476,-2113.681 803.7463,-2238 788.8306,-2254.7203 768.0986,-2263.99 746.2049,-2268.7313"/>
<polygon fill="none" stroke="#000000" points="745.2784,-2265.3431 736.0806,-2270.6015 746.55,-2272.2267 745.2784,-2265.3431"/>
</g>
<!-- \\Anax\\View\\ViewRenderFile -->
<g id="node44" class="node">
<title>\\Anax\\View\\ViewRenderFile</title>
<polygon fill="none" stroke="#000000" points="1023.7463,-600 912.7463,-600 912.7463,-564 1023.7463,-564 1023.7463,-600"/>
<text text-anchor="middle" x="968.2463" y="-579.2" font-family="Courier,monospace" font-size="11.00" fill="#000000">ViewRenderFile</text>
</g>
<!-- \\Anax\\View\\ViewRenderFile&#45;&gt;\\Anax\\Commons\\ContainerInjectableInterface -->
<g id="edge32" class="edge">
<title>\\Anax\\View\\ViewRenderFile&#45;&gt;\\Anax\\Commons\\ContainerInjectableInterface</title>
<path fill="none" stroke="#000000" stroke-dasharray="1,5" d="M912.4899,-584.5167C895.5821,-588.1866 878.6246,-595.3759 867.7463,-609 754.722,-750.5524 924.0969,-2102.6217 803.7463,-2238 788.8593,-2254.7458 768.1392,-2264.0263 746.2481,-2268.7698"/>
<polygon fill="none" stroke="#000000" points="745.3219,-2265.3816 736.1244,-2270.6405 746.5939,-2272.2651 745.3219,-2265.3816"/>
</g>
<!-- \\Anax\\View\\ViewRenderFileInterface -->
<g id="node45" class="node">
<title>\\Anax\\View\\ViewRenderFileInterface</title>
<polygon fill="none" stroke="#000000" points="718.8114,-600 546.8114,-600 546.8114,-564 718.8114,-564 718.8114,-600"/>
<text text-anchor="middle" x="632.8114" y="-579.2" font-family="Courier,monospace" font-size="11.00" fill="#000000">ViewRenderFileInterface</text>
</g>
<!-- \\Anax\\View\\ViewRenderFile&#45;&gt;\\Anax\\View\\ViewRenderFileInterface -->
<g id="edge31" class="edge">
<title>\\Anax\\View\\ViewRenderFile&#45;&gt;\\Anax\\View\\ViewRenderFileInterface</title>
<path fill="none" stroke="#000000" stroke-dasharray="1,5" d="M912.4795,-582C862.6416,-582 788.5319,-582 729.1211,-582"/>
<polygon fill="none" stroke="#000000" points="728.9653,-578.5001 718.9653,-582 728.9653,-585.5001 728.9653,-578.5001"/>
</g>
</g>
</svg>
