<?xml version="1.0" encoding="UTF-8" standalone="no"?>
<!DOCTYPE svg PUBLIC "-//W3C//DTD SVG 1.1//EN"
 "http://www.w3.org/Graphics/SVG/1.1/DTD/svg11.dtd">
<!-- Generated by graphviz version 2.40.1 (20161225.0304)
 -->
<!-- Title: G Pages: 1 -->
<svg width="1101pt" height="2566pt"
 viewBox="0.00 0.00 1100.75 2566.00" xmlns="http://www.w3.org/2000/svg" xmlns:xlink="http://www.w3.org/1999/xlink">
<g id="graph0" class="graph" transform="scale(1 1) rotate(0) translate(4 2562)">
<title>G</title>
<polygon fill="#ffffff" stroke="transparent" points="-4,4 -4,-2562 1096.7463,-2562 1096.7463,4 -4,4"/>
<g id="clust1" class="cluster">
<title>cluster_Global</title>
<path fill="none" stroke="#c0c0c0" d="M323.8766,-190C323.8766,-190 1072.7463,-190 1072.7463,-190 1078.7463,-190 1084.7463,-196 1084.7463,-202 1084.7463,-202 1084.7463,-2538 1084.7463,-2538 1084.7463,-2544 1078.7463,-2550 1072.7463,-2550 1072.7463,-2550 323.8766,-2550 323.8766,-2550 317.8766,-2550 311.8766,-2544 311.8766,-2538 311.8766,-2538 311.8766,-202 311.8766,-202 311.8766,-196 317.8766,-190 323.8766,-190"/>
<text text-anchor="middle" x="698.3114" y="-2537.2" font-family="Times,serif" font-size="11.00" fill="#c0c0c0">Global</text>
</g>
<g id="clust2" class="cluster">
<title>cluster_\Anax</title>
<path fill="none" stroke="#c0c0c0" d="M331.8766,-368C331.8766,-368 1064.7463,-368 1064.7463,-368 1070.7463,-368 1076.7463,-374 1076.7463,-380 1076.7463,-380 1076.7463,-2510 1076.7463,-2510 1076.7463,-2516 1070.7463,-2522 1064.7463,-2522 1064.7463,-2522 331.8766,-2522 331.8766,-2522 325.8766,-2522 319.8766,-2516 319.8766,-2510 319.8766,-2510 319.8766,-380 319.8766,-380 319.8766,-374 325.8766,-368 331.8766,-368"/>
<text text-anchor="middle" x="698.3114" y="-2509.2" font-family="Times,serif" font-size="11.00" fill="#c0c0c0">Anax</text>
</g>
<g id="clust3" class="cluster">
<title>cluster_\Anax\Commons</title>
<path fill="none" stroke="#c0c0c0" d="M533.8114,-2180C533.8114,-2180 731.8114,-2180 731.8114,-2180 737.8114,-2180 743.8114,-2186 743.8114,-2192 743.8114,-2192 743.8114,-2294 743.8114,-2294 743.8114,-2300 737.8114,-2306 731.8114,-2306 731.8114,-2306 533.8114,-2306 533.8114,-2306 527.8114,-2306 521.8114,-2300 521.8114,-2294 521.8114,-2294 521.8114,-2192 521.8114,-2192 521.8114,-2186 527.8114,-2180 533.8114,-2180"/>
<text text-anchor="middle" x="632.8114" y="-2293.2" font-family="Times,serif" font-size="11.00" fill="#c0c0c0">Commons</text>
</g>
<g id="clust4" class="cluster">
<title>cluster_\Anax\Page</title>
<path fill="none" stroke="#c0c0c0" d="M945.2463,-2422C945.2463,-2422 991.2463,-2422 991.2463,-2422 997.2463,-2422 1003.2463,-2428 1003.2463,-2434 1003.2463,-2434 1003.2463,-2482 1003.2463,-2482 1003.2463,-2488 997.2463,-2494 991.2463,-2494 991.2463,-2494 945.2463,-2494 945.2463,-2494 939.2463,-2494 933.2463,-2488 933.2463,-2482 933.2463,-2482 933.2463,-2434 933.2463,-2434 933.2463,-2428 939.2463,-2422 945.2463,-2422"/>
<text text-anchor="middle" x="968.2463" y="-2481.2" font-family="Times,serif" font-size="11.00" fill="#c0c0c0">Page</text>
</g>
<g id="clust5" class="cluster">
<title>cluster_\Anax\Controller</title>
<path fill="none" stroke="#c0c0c0" d="M879.7463,-2180C879.7463,-2180 1056.7463,-2180 1056.7463,-2180 1062.7463,-2180 1068.7463,-2186 1068.7463,-2192 1068.7463,-2192 1068.7463,-2402 1068.7463,-2402 1068.7463,-2408 1062.7463,-2414 1056.7463,-2414 1056.7463,-2414 879.7463,-2414 879.7463,-2414 873.7463,-2414 867.7463,-2408 867.7463,-2402 867.7463,-2402 867.7463,-2192 867.7463,-2192 867.7463,-2186 873.7463,-2180 879.7463,-2180"/>
<text text-anchor="middle" x="968.2463" y="-2401.2" font-family="Times,serif" font-size="11.00" fill="#c0c0c0">Controller</text>
</g>
<g id="clust6" class="cluster">
<title>cluster_\Anax\TextFilter</title>
<path fill="none" stroke="#c0c0c0" d="M569.8114,-1748C569.8114,-1748 1019.7463,-1748 1019.7463,-1748 1025.7463,-1748 1031.7463,-1754 1031.7463,-1760 1031.7463,-1760 1031.7463,-2160 1031.7463,-2160 1031.7463,-2166 1025.7463,-2172 1019.7463,-2172 1019.7463,-2172 569.8114,-2172 569.8114,-2172 563.8114,-2172 557.8114,-2166 557.8114,-2160 557.8114,-2160 557.8114,-1760 557.8114,-1760 557.8114,-1754 563.8114,-1748 569.8114,-1748"/>
<text text-anchor="middle" x="794.7788" y="-2159.2" font-family="Times,serif" font-size="11.00" fill="#c0c0c0">TextFilter</text>
</g>
<g id="clust7" class="cluster">
<title>cluster_\Anax\TextFilter\Filter</title>
<path fill="none" stroke="#c0c0c0" d="M577.8114,-1964C577.8114,-1964 1009.7463,-1964 1009.7463,-1964 1015.7463,-1964 1021.7463,-1970 1021.7463,-1976 1021.7463,-1976 1021.7463,-2132 1021.7463,-2132 1021.7463,-2138 1015.7463,-2144 1009.7463,-2144 1009.7463,-2144 577.8114,-2144 577.8114,-2144 571.8114,-2144 565.8114,-2138 565.8114,-2132 565.8114,-2132 565.8114,-1976 565.8114,-1976 565.8114,-1970 571.8114,-1964 577.8114,-1964"/>
<text text-anchor="middle" x="793.7788" y="-2131.2" font-family="Times,serif" font-size="11.00" fill="#c0c0c0">Filter</text>
</g>
<g id="clust8" class="cluster">
<title>cluster_\Anax\Configure</title>
<path fill="none" stroke="#c0c0c0" d="M567.8114,-551C567.8114,-551 697.8114,-551 697.8114,-551 703.8114,-551 709.8114,-557 709.8114,-563 709.8114,-563 709.8114,-827 709.8114,-827 709.8114,-833 703.8114,-839 697.8114,-839 697.8114,-839 567.8114,-839 567.8114,-839 561.8114,-839 555.8114,-833 555.8114,-827 555.8114,-827 555.8114,-563 555.8114,-563 555.8114,-557 561.8114,-551 567.8114,-551"/>
<text text-anchor="middle" x="632.8114" y="-826.2" font-family="Times,serif" font-size="11.00" fill="#c0c0c0">Configure</text>
</g>
<g id="clust9" class="cluster">
<title>cluster_\Anax\DI</title>
<path fill="none" stroke="#c0c0c0" d="M339.8766,-1478C339.8766,-1478 1037.7463,-1478 1037.7463,-1478 1043.7463,-1478 1049.7463,-1484 1049.7463,-1490 1049.7463,-1490 1049.7463,-1728 1049.7463,-1728 1049.7463,-1734 1043.7463,-1740 1037.7463,-1740 1037.7463,-1740 339.8766,-1740 339.8766,-1740 333.8766,-1740 327.8766,-1734 327.8766,-1728 327.8766,-1728 327.8766,-1490 327.8766,-1490 327.8766,-1484 333.8766,-1478 339.8766,-1478"/>
<text text-anchor="middle" x="688.8114" y="-1727.2" font-family="Times,serif" font-size="11.00" fill="#c0c0c0">DI</text>
</g>
<g id="clust10" class="cluster">
<title>cluster_\Anax\DI\Exception</title>
<path fill="none" stroke="#c0c0c0" d="M906.7463,-1586C906.7463,-1586 1029.7463,-1586 1029.7463,-1586 1035.7463,-1586 1041.7463,-1592 1041.7463,-1598 1041.7463,-1598 1041.7463,-1700 1041.7463,-1700 1041.7463,-1706 1035.7463,-1712 1029.7463,-1712 1029.7463,-1712 906.7463,-1712 906.7463,-1712 900.7463,-1712 894.7463,-1706 894.7463,-1700 894.7463,-1700 894.7463,-1598 894.7463,-1598 894.7463,-1592 900.7463,-1586 906.7463,-1586"/>
<text text-anchor="middle" x="968.2463" y="-1699.2" font-family="Times,serif" font-size="11.00" fill="#c0c0c0">Exception</text>
</g>
<g id="clust11" class="cluster">
<title>cluster_\Anax\View</title>
<path fill="none" stroke="#c0c0c0" d="M550.8114,-1236C550.8114,-1236 1019.7463,-1236 1019.7463,-1236 1025.7463,-1236 1031.7463,-1242 1031.7463,-1248 1031.7463,-1248 1031.7463,-1458 1031.7463,-1458 1031.7463,-1464 1025.7463,-1470 1019.7463,-1470 1019.7463,-1470 550.8114,-1470 550.8114,-1470 544.8114,-1470 538.8114,-1464 538.8114,-1458 538.8114,-1458 538.8114,-1248 538.8114,-1248 538.8114,-1242 544.8114,-1236 550.8114,-1236"/>
<text text-anchor="middle" x="785.2788" y="-1457.2" font-family="Times,serif" font-size="11.00" fill="#c0c0c0">View</text>
</g>
<g id="clust12" class="cluster">
<title>cluster_\Anax\Request</title>
<path fill="none" stroke="#c0c0c0" d="M940.2463,-1156C940.2463,-1156 996.2463,-1156 996.2463,-1156 1002.2463,-1156 1008.2463,-1162 1008.2463,-1168 1008.2463,-1168 1008.2463,-1216 1008.2463,-1216 1008.2463,-1222 1002.2463,-1228 996.2463,-1228 996.2463,-1228 940.2463,-1228 940.2463,-1228 934.2463,-1228 928.2463,-1222 928.2463,-1216 928.2463,-1216 928.2463,-1168 928.2463,-1168 928.2463,-1162 934.2463,-1156 940.2463,-1156"/>
<text text-anchor="middle" x="968.2463" y="-1215.2" font-family="Times,serif" font-size="11.00" fill="#c0c0c0">Request</text>
</g>
<g id="clust13" class="cluster">
<title>cluster_\Anax\Route</title>
<path fill="none" stroke="#c0c0c0" d="M881.7463,-456C881.7463,-456 1054.7463,-456 1054.7463,-456 1060.7463,-456 1066.7463,-462 1066.7463,-468 1066.7463,-468 1066.7463,-868 1066.7463,-868 1066.7463,-874 1060.7463,-880 1054.7463,-880 1054.7463,-880 881.7463,-880 881.7463,-880 875.7463,-880 869.7463,-874 869.7463,-868 869.7463,-868 869.7463,-468 869.7463,-468 869.7463,-462 875.7463,-456 881.7463,-456"/>
<text text-anchor="middle" x="968.2463" y="-867.2" font-family="Times,serif" font-size="11.00" fill="#c0c0c0">Route</text>
</g>
<g id="clust14" class="cluster">
<title>cluster_\Anax\Route\Exception</title>
<path fill="none" stroke="#c0c0c0" d="M889.7463,-618C889.7463,-618 1046.7463,-618 1046.7463,-618 1052.7463,-618 1058.7463,-624 1058.7463,-630 1058.7463,-630 1058.7463,-840 1058.7463,-840 1058.7463,-846 1052.7463,-852 1046.7463,-852 1046.7463,-852 889.7463,-852 889.7463,-852 883.7463,-852 877.7463,-846 877.7463,-840 877.7463,-840 877.7463,-630 877.7463,-630 877.7463,-624 883.7463,-618 889.7463,-618"/>
<text text-anchor="middle" x="968.2463" y="-839.2" font-family="Times,serif" font-size="11.00" fill="#c0c0c0">Exception</text>
</g>
<g id="clust15" class="cluster">
<title>cluster_\Anax\Response</title>
<path fill="none" stroke="#c0c0c0" d="M601.3114,-1022C601.3114,-1022 1023.2463,-1022 1023.2463,-1022 1029.2463,-1022 1035.2463,-1028 1035.2463,-1034 1035.2463,-1034 1035.2463,-1136 1035.2463,-1136 1035.2463,-1142 1029.2463,-1148 1023.2463,-1148 1023.2463,-1148 601.3114,-1148 601.3114,-1148 595.3114,-1148 589.3114,-1142 589.3114,-1136 589.3114,-1136 589.3114,-1034 589.3114,-1034 589.3114,-1028 595.3114,-1022 601.3114,-1022"/>
<text text-anchor="middle" x="812.2788" y="-1135.2" font-family="Times,serif" font-size="11.00" fill="#c0c0c0">Response</text>
</g>
<g id="clust16" class="cluster">
<title>cluster_\Anax\Url</title>
<path fill="none" stroke="#c0c0c0" d="M933.7463,-888C933.7463,-888 1002.7463,-888 1002.7463,-888 1008.7463,-888 1014.7463,-894 1014.7463,-900 1014.7463,-900 1014.7463,-1002 1014.7463,-1002 1014.7463,-1008 1008.7463,-1014 1002.7463,-1014 1002.7463,-1014 933.7463,-1014 933.7463,-1014 927.7463,-1014 921.7463,-1008 921.7463,-1002 921.7463,-1002 921.7463,-900 921.7463,-900 921.7463,-894 927.7463,-888 933.7463,-888"/>
<text text-anchor="middle" x="968.2463" y="-1001.2" font-family="Times,serif" font-size="11.00" fill="#c0c0c0">Url</text>
</g>
<g id="clust17" class="cluster">
<title>cluster_\Anax\Session</title>
<path fill="none" stroke="#c0c0c0" d="M909.7463,-376C909.7463,-376 1026.7463,-376 1026.7463,-376 1032.7463,-376 1038.7463,-382 1038.7463,-388 1038.7463,-388 1038.7463,-436 1038.7463,-436 1038.7463,-442 1032.7463,-448 1026.7463,-448 1026.7463,-448 909.7463,-448 909.7463,-448 903.7463,-448 897.7463,-442 897.7463,-436 897.7463,-436 897.7463,-388 897.7463,-388 897.7463,-382 903.7463,-376 909.7463,-376"/>
<text text-anchor="middle" x="968.2463" y="-435.2" font-family="Times,serif" font-size="11.00" fill="#c0c0c0">Session</text>
</g>
<g id="clust18" class="cluster">
<title>cluster_\Jonathan</title>
<path fill="none" stroke="#c0c0c0" d="M908.7463,-198C908.7463,-198 1027.7463,-198 1027.7463,-198 1033.7463,-198 1039.7463,-204 1039.7463,-210 1039.7463,-210 1039.7463,-348 1039.7463,-348 1039.7463,-354 1033.7463,-360 1027.7463,-360 1027.7463,-360 908.7463,-360 908.7463,-360 902.7463,-360 896.7463,-354 896.7463,-348 896.7463,-348 896.7463,-210 896.7463,-210 896.7463,-204 902.7463,-198 908.7463,-198"/>
<text text-anchor="middle" x="968.2463" y="-347.2" font-family="Times,serif" font-size="11.00" fill="#c0c0c0">Jonathan</text>
</g>
<g id="clust19" class="cluster">
<title>cluster_\Jonathan\Guess</title>
<path fill="none" stroke="#c0c0c0" d="M916.7463,-206C916.7463,-206 1019.7463,-206 1019.7463,-206 1025.7463,-206 1031.7463,-212 1031.7463,-218 1031.7463,-218 1031.7463,-320 1031.7463,-320 1031.7463,-326 1025.7463,-332 1019.7463,-332 1019.7463,-332 916.7463,-332 916.7463,-332 910.7463,-332 904.7463,-326 904.7463,-320 904.7463,-320 904.7463,-218 904.7463,-218 904.7463,-212 910.7463,-206 916.7463,-206"/>
<text text-anchor="middle" x="968.2463" y="-319.2" font-family="Times,serif" font-size="11.00" fill="#c0c0c0">Guess</text>
</g>
<!-- \\Anax\\Commons\\ContainerInjectableInterface -->
<g id="node1" class="node">
<title>\\Anax\\Commons\\ContainerInjectableInterface</title>
<polygon fill="none" stroke="#000000" points="735.8114,-2278 529.8114,-2278 529.8114,-2242 735.8114,-2242 735.8114,-2278"/>
<text text-anchor="middle" x="632.8114" y="-2257.2" font-family="Courier,monospace" font-size="11.00" fill="#000000">ContainerInjectableInterface</text>
</g>
<!-- \\Anax\\Commons\\ContainerInjectableTrait -->
<g id="node2" class="node">
<title>\\Anax\\Commons\\ContainerInjectableTrait</title>
<polygon fill="none" stroke="#000000" points="722.3114,-2224 543.3114,-2224 543.3114,-2188 722.3114,-2188 722.3114,-2224"/>
<text text-anchor="middle" x="632.8114" y="-2203.2" font-family="Courier,monospace" font-size="11.00" fill="#000000">ContainerInjectableTrait</text>
</g>
<!-- \\Anax\\Page\\Page -->
<g id="node3" class="node">
<title>\\Anax\\Page\\Page</title>
<polygon fill="none" stroke="#000000" points="995.2463,-2466 941.2463,-2466 941.2463,-2430 995.2463,-2430 995.2463,-2466"/>
<text text-anchor="middle" x="968.2463" y="-2445.2" font-family="Courier,monospace" font-size="11.00" fill="#000000">Page</text>
</g>
<!-- \\Anax\\Page\\Page&#45;&gt;\\Anax\\Commons\\ContainerInjectableInterface -->
<g id="edge1" class="edge">
<title>\\Anax\\Page\\Page&#45;&gt;\\Anax\\Commons\\ContainerInjectableInterface</title>
<path fill="none" stroke="#000000" stroke-dasharray="1,5" d="M940.9844,-2442.2255C920.2923,-2437.2867 891.4574,-2429.1937 867.7463,-2418 788.5713,-2380.6227 705.8353,-2318.7658 662.8255,-2284.5909"/>
<polygon fill="none" stroke="#000000" points="664.7604,-2281.6566 654.766,-2278.1405 660.3863,-2287.1217 664.7604,-2281.6566"/>
</g>
<!-- \\Anax\\Controller\\FlatFileContentController -->
<g id="node4" class="node">
<title>\\Anax\\Controller\\FlatFileContentController</title>
<polygon fill="none" stroke="#000000" points="1060.7463,-2386 875.7463,-2386 875.7463,-2350 1060.7463,-2350 1060.7463,-2386"/>
<text text-anchor="middle" x="968.2463" y="-2365.2" font-family="Courier,monospace" font-size="11.00" fill="#000000">FlatFileContentController</text>
</g>
<!-- \\Anax\\Controller\\FlatFileContentController&#45;&gt;\\Anax\\Commons\\ContainerInjectableInterface -->
<g id="edge2" class="edge">
<title>\\Anax\\Controller\\FlatFileContentController&#45;&gt;\\Anax\\Commons\\ContainerInjectableInterface</title>
<path fill="none" stroke="#000000" stroke-dasharray="1,5" d="M898.5948,-2349.9623C888.22,-2347.0804 877.679,-2344.0425 867.7463,-2341 807.1556,-2322.4404 738.7542,-2298.5134 691.451,-2281.4879"/>
<polygon fill="none" stroke="#000000" points="692.5786,-2278.1739 681.9842,-2278.0713 690.2022,-2284.7582 692.5786,-2278.1739"/>
</g>
<!-- \\Anax\\Controller\\DevelopmentController -->
<g id="node5" class="node">
<title>\\Anax\\Controller\\DevelopmentController</title>
<polygon fill="none" stroke="#000000" points="1047.2463,-2332 889.2463,-2332 889.2463,-2296 1047.2463,-2296 1047.2463,-2332"/>
<text text-anchor="middle" x="968.2463" y="-2311.2" font-family="Courier,monospace" font-size="11.00" fill="#000000">DevelopmentController</text>
</g>
<!-- \\Anax\\Controller\\DevelopmentController&#45;&gt;\\Anax\\Commons\\ContainerInjectableInterface -->
<g id="edge6" class="edge">
<title>\\Anax\\Controller\\DevelopmentController&#45;&gt;\\Anax\\Commons\\ContainerInjectableInterface</title>
<path fill="none" stroke="#000000" stroke-dasharray="1,5" d="M889.1776,-2301.2711C846.4119,-2294.3865 792.8548,-2285.7646 745.7668,-2278.1841"/>
<polygon fill="none" stroke="#000000" points="746.2524,-2274.7173 735.8232,-2276.5834 745.1397,-2281.6283 746.2524,-2274.7173"/>
</g>
<!-- \\Anax\\Controller\\ErrorHandlerController -->
<g id="node6" class="node">
<title>\\Anax\\Controller\\ErrorHandlerController</title>
<polygon fill="none" stroke="#000000" points="1050.7463,-2278 885.7463,-2278 885.7463,-2242 1050.7463,-2242 1050.7463,-2278"/>
<text text-anchor="middle" x="968.2463" y="-2257.2" font-family="Courier,monospace" font-size="11.00" fill="#000000">ErrorHandlerController</text>
</g>
<!-- \\Anax\\Controller\\ErrorHandlerController&#45;&gt;\\Anax\\Commons\\ContainerInjectableInterface -->
<g id="edge7" class="edge">
<title>\\Anax\\Controller\\ErrorHandlerController&#45;&gt;\\Anax\\Commons\\ContainerInjectableInterface</title>
<path fill="none" stroke="#000000" stroke-dasharray="1,5" d="M885.3298,-2260C843.3946,-2260 791.8609,-2260 746.3073,-2260"/>
<polygon fill="none" stroke="#000000" points="746.081,-2256.5001 736.0809,-2260 746.0809,-2263.5001 746.081,-2256.5001"/>
</g>
<!-- \\Anax\\Controller\\SampleController -->
<g id="node7" class="node">
<title>\\Anax\\Controller\\SampleController</title>
<polygon fill="none" stroke="#000000" points="1030.7463,-2224 905.7463,-2224 905.7463,-2188 1030.7463,-2188 1030.7463,-2224"/>
<text text-anchor="middle" x="968.2463" y="-2203.2" font-family="Courier,monospace" font-size="11.00" fill="#000000">SampleController</text>
</g>
<!-- \\Anax\\Controller\\SampleController&#45;&gt;\\Anax\\Commons\\ContainerInjectableInterface -->
<g id="edge25" class="edge">
<title>\\Anax\\Controller\\SampleController&#45;&gt;\\Anax\\Commons\\ContainerInjectableInterface</title>
<path fill="none" stroke="#000000" stroke-dasharray="1,5" d="M905.3788,-2216.4098C874.7283,-2221.4617 837.3195,-2227.5933 803.7463,-2233 785.0546,-2236.0102 765.2077,-2239.1744 745.9069,-2242.2344"/>
<polygon fill="none" stroke="#000000" points="745.2019,-2238.8024 735.8726,-2243.8238 746.297,-2245.7162 745.2019,-2238.8024"/>
</g>
<!-- \\Anax\\TextFilter\\Filter\\Variable -->
<g id="node8" class="node">
<title>\\Anax\\TextFilter\\Filter\\Variable</title>
<polygon fill="none" stroke="#000000" points="1003.7463,-2116 932.7463,-2116 932.7463,-2080 1003.7463,-2080 1003.7463,-2116"/>
<text text-anchor="middle" x="968.2463" y="-2095.2" font-family="Courier,monospace" font-size="11.00" fill="#000000">Variable</text>
</g>
<!-- \\Anax\\TextFilter\\Filter\\FilterInterface -->
<g id="node11" class="node">
<title>\\Anax\\TextFilter\\Filter\\FilterInterface</title>
<polygon fill="none" stroke="#000000" points="691.8114,-2089 573.8114,-2089 573.8114,-2053 691.8114,-2053 691.8114,-2089"/>
<text text-anchor="middle" x="632.8114" y="-2068.2" font-family="Courier,monospace" font-size="11.00" fill="#000000">FilterInterface</text>
</g>
<!-- \\Anax\\TextFilter\\Filter\\Variable&#45;&gt;\\Anax\\TextFilter\\Filter\\FilterInterface -->
<g id="edge3" class="edge">
<title>\\Anax\\TextFilter\\Filter\\Variable&#45;&gt;\\Anax\\TextFilter\\Filter\\FilterInterface</title>
<path fill="none" stroke="#000000" stroke-dasharray="1,5" d="M932.6664,-2095.1361C877.946,-2090.7315 772.119,-2082.2132 701.9607,-2076.566"/>
<polygon fill="none" stroke="#000000" points="702.1272,-2073.0682 691.8786,-2075.7545 701.5655,-2080.0456 702.1272,-2073.0682"/>
</g>
<!-- \\Anax\\TextFilter\\Filter\\Frontmatter -->
<g id="node9" class="node">
<title>\\Anax\\TextFilter\\Filter\\Frontmatter</title>
<polygon fill="none" stroke="#000000" points="1013.7463,-2062 922.7463,-2062 922.7463,-2026 1013.7463,-2026 1013.7463,-2062"/>
<text text-anchor="middle" x="968.2463" y="-2041.2" font-family="Courier,monospace" font-size="11.00" fill="#000000">Frontmatter</text>
</g>
<!-- \\Anax\\TextFilter\\Filter\\Frontmatter&#45;&gt;\\Anax\\TextFilter\\Filter\\FilterInterface -->
<g id="edge4" class="edge">
<title>\\Anax\\TextFilter\\Filter\\Frontmatter&#45;&gt;\\Anax\\TextFilter\\Filter\\FilterInterface</title>
<path fill="none" stroke="#000000" stroke-dasharray="1,5" d="M922.6589,-2047.6694C865.868,-2052.2407 768.2728,-2060.0964 702.182,-2065.4162"/>
<polygon fill="none" stroke="#000000" points="701.5433,-2061.9562 691.8564,-2066.2473 702.105,-2068.9336 701.5433,-2061.9562"/>
</g>
<!-- \\Anax\\TextFilter\\Filter\\Exception -->
<g id="node10" class="node">
<title>\\Anax\\TextFilter\\Filter\\Exception</title>
<polygon fill="none" stroke="#000000" points="1006.7463,-2008 929.7463,-2008 929.7463,-1972 1006.7463,-1972 1006.7463,-2008"/>
<text text-anchor="middle" x="968.2463" y="-1987.2" font-family="Courier,monospace" font-size="11.00" fill="#000000">Exception</text>
</g>
<!-- \\Exception -->
<g id="node48" class="node">
<title>\\Exception</title>
<ellipse fill="none" stroke="#000000" cx="632.8114" cy="-18" rx="50.0912" ry="18"/>
<text text-anchor="middle" x="632.8114" y="-14.3" font-family="Times,serif" font-size="14.00" fill="#c0c0c0">\Exception</text>
</g>
<!-- \\Anax\\TextFilter\\Filter\\Exception&#45;&gt;\\Exception -->
<g id="edge30" class="edge">
<title>\\Anax\\TextFilter\\Filter\\Exception&#45;&gt;\\Exception</title>
<path fill="none" stroke="#000000" d="M929.7248,-1992.2109C908.0954,-1991.1923 882.5516,-1985.7709 867.7463,-1968 733.6058,-1806.991 925.6269,-253.4777 803.7463,-83 778.236,-47.3181 730.4769,-31.2183 691.9124,-23.9569"/>
<polygon fill="none" stroke="#000000" points="692.2662,-20.4663 681.8166,-22.2143 691.0755,-27.3643 692.2662,-20.4663"/>
</g>
<!-- \\Anax\\TextFilter\\TextFilter -->
<g id="node12" class="node">
<title>\\Anax\\TextFilter\\TextFilter</title>
<polygon fill="none" stroke="#000000" points="1010.2463,-1954 926.2463,-1954 926.2463,-1918 1010.2463,-1918 1010.2463,-1954"/>
<text text-anchor="middle" x="968.2463" y="-1933.2" font-family="Courier,monospace" font-size="11.00" fill="#000000">TextFilter</text>
</g>
<!-- \\Anax\\TextFilter\\Exception -->
<g id="node13" class="node">
<title>\\Anax\\TextFilter\\Exception</title>
<polygon fill="none" stroke="#000000" points="1006.7463,-1900 929.7463,-1900 929.7463,-1864 1006.7463,-1864 1006.7463,-1900"/>
<text text-anchor="middle" x="968.2463" y="-1879.2" font-family="Courier,monospace" font-size="11.00" fill="#000000">Exception</text>
</g>
<!-- \\Anax\\TextFilter\\Exception&#45;&gt;\\Exception -->
<g id="edge5" class="edge">
<title>\\Anax\\TextFilter\\Exception&#45;&gt;\\Exception</title>
<path fill="none" stroke="#000000" d="M929.552,-1882.147C907.8622,-1880.0008 882.3157,-1873.3062 867.7463,-1855 745.0589,-1700.8455 918.5024,-243.1463 803.7463,-83 778.1974,-47.3457 730.4414,-31.2437 691.8879,-23.9745"/>
<polygon fill="none" stroke="#000000" points="692.2453,-20.4844 681.7952,-22.2296 691.0527,-27.3821 692.2453,-20.4844"/>
</g>
<!-- \\Anax\\TextFilter\\TTextUtilities -->
<g id="node14" class="node">
<title>\\Anax\\TextFilter\\TTextUtilities</title>
<polygon fill="none" stroke="#000000" points="1023.7463,-1846 912.7463,-1846 912.7463,-1810 1023.7463,-1810 1023.7463,-1846"/>
<text text-anchor="middle" x="968.2463" y="-1825.2" font-family="Courier,monospace" font-size="11.00" fill="#000000">TTextUtilities</text>
</g>
<!-- \\Anax\\TextFilter\\TShortcode -->
<g id="node15" class="node">
<title>\\Anax\\TextFilter\\TShortcode</title>
<polygon fill="none" stroke="#000000" points="1010.2463,-1792 926.2463,-1792 926.2463,-1756 1010.2463,-1756 1010.2463,-1792"/>
<text text-anchor="middle" x="968.2463" y="-1771.2" font-family="Courier,monospace" font-size="11.00" fill="#000000">TShortcode</text>
</g>
<!-- \\Anax\\Configure\\Configuration -->
<g id="node16" class="node">
<title>\\Anax\\Configure\\Configuration</title>
<polygon fill="none" stroke="#000000" points="684.8114,-811 580.8114,-811 580.8114,-775 684.8114,-775 684.8114,-811"/>
<text text-anchor="middle" x="632.8114" y="-790.2" font-family="Courier,monospace" font-size="11.00" fill="#000000">Configuration</text>
</g>
<!-- \\Anax\\Configure\\Exception -->
<g id="node17" class="node">
<title>\\Anax\\Configure\\Exception</title>
<polygon fill="none" stroke="#000000" points="671.3114,-703 594.3114,-703 594.3114,-667 671.3114,-667 671.3114,-703"/>
<text text-anchor="middle" x="632.8114" y="-682.2" font-family="Courier,monospace" font-size="11.00" fill="#000000">Exception</text>
</g>
<!-- \\Anax\\Configure\\Exception&#45;&gt;\\Exception -->
<g id="edge12" class="edge">
<title>\\Anax\\Configure\\Exception&#45;&gt;\\Exception</title>
<path fill="none" stroke="#000000" d="M671.6013,-691.7114C719.2911,-697.441 798.4748,-698.2001 835.7463,-649 873.1175,-599.6682 871.2291,-142.707 835.7463,-92 803.6971,-46.1998 740.1668,-28.647 692.6829,-21.9743"/>
<polygon fill="none" stroke="#000000" points="692.8714,-18.47 682.5084,-20.6744 691.9842,-25.4136 692.8714,-18.47"/>
</g>
<!-- \\Anax\\Configure\\ConfigureInterface -->
<g id="node18" class="node">
<title>\\Anax\\Configure\\ConfigureInterface</title>
<polygon fill="none" stroke="#000000" points="701.8114,-757 563.8114,-757 563.8114,-721 701.8114,-721 701.8114,-757"/>
<text text-anchor="middle" x="632.8114" y="-736.2" font-family="Courier,monospace" font-size="11.00" fill="#000000">ConfigureInterface</text>
</g>
<!-- \\Anax\\Configure\\Configure2Trait -->
<g id="node19" class="node">
<title>\\Anax\\Configure\\Configure2Trait</title>
<polygon fill="none" stroke="#000000" points="691.8114,-649 573.8114,-649 573.8114,-613 691.8114,-613 691.8114,-649"/>
<text text-anchor="middle" x="632.8114" y="-628.2" font-family="Courier,monospace" font-size="11.00" fill="#000000">Configure2Trait</text>
</g>
<!-- \\Anax\\Configure\\ConfigureTrait -->
<g id="node20" class="node">
<title>\\Anax\\Configure\\ConfigureTrait</title>
<polygon fill="none" stroke="#000000" points="688.3114,-595 577.3114,-595 577.3114,-559 688.3114,-559 688.3114,-595"/>
<text text-anchor="middle" x="632.8114" y="-574.2" font-family="Courier,monospace" font-size="11.00" fill="#000000">ConfigureTrait</text>
</g>
<!-- \\Anax\\DI\\Exception\\NotFoundException -->
<g id="node21" class="node">
<title>\\Anax\\DI\\Exception\\NotFoundException</title>
<polygon fill="none" stroke="#000000" points="1033.7463,-1684 902.7463,-1684 902.7463,-1648 1033.7463,-1648 1033.7463,-1684"/>
<text text-anchor="middle" x="968.2463" y="-1663.2" font-family="Courier,monospace" font-size="11.00" fill="#000000">NotFoundException</text>
</g>
<!-- \\Anax\\DI\\Exception\\NotFoundException&#45;&gt;\\Exception -->
<g id="edge28" class="edge">
<title>\\Anax\\DI\\Exception\\NotFoundException&#45;&gt;\\Exception</title>
<path fill="none" stroke="#000000" d="M902.5586,-1660.8723C889.1542,-1656.7217 876.4928,-1649.9336 867.7463,-1639 759.6546,-1503.8803 904.8853,-223.3995 803.7463,-83 778.1083,-47.4098 730.3593,-31.3027 691.8312,-24.0152"/>
<polygon fill="none" stroke="#000000" points="692.1968,-20.5264 681.7457,-22.2652 691.0001,-27.4234 692.1968,-20.5264"/>
</g>
<!-- \\Psr\\Container\\NotFoundExceptionInterface -->
<g id="node50" class="node">
<title>\\Psr\\Container\\NotFoundExceptionInterface</title>
<ellipse fill="none" stroke="#000000" cx="632.8114" cy="-164" rx="170.8697" ry="18"/>
<text text-anchor="middle" x="632.8114" y="-160.3" font-family="Times,serif" font-size="14.00" fill="#c0c0c0">\Psr\Container\NotFoundExceptionInterface</text>
</g>
<!-- \\Anax\\DI\\Exception\\NotFoundException&#45;&gt;\\Psr\\Container\\NotFoundExceptionInterface -->
<g id="edge29" class="edge">
<title>\\Anax\\DI\\Exception\\NotFoundException&#45;&gt;\\Psr\\Container\\NotFoundExceptionInterface</title>
<path fill="none" stroke="#000000" stroke-dasharray="1,5" d="M902.6971,-1660.7605C889.2867,-1656.6148 876.5878,-1649.8569 867.7463,-1639 790.9972,-1544.756 832.5377,-665.0822 803.7463,-547 769.2925,-405.6949 684.5388,-251.7272 648.9546,-190.8841"/>
<polygon fill="none" stroke="#000000" points="651.9681,-189.104 643.8766,-182.2645 645.9369,-192.6571 651.9681,-189.104"/>
</g>
<!-- \\Anax\\DI\\Exception\\Exception -->
<g id="node22" class="node">
<title>\\Anax\\DI\\Exception\\Exception</title>
<polygon fill="none" stroke="#000000" points="1006.7463,-1630 929.7463,-1630 929.7463,-1594 1006.7463,-1594 1006.7463,-1630"/>
<text text-anchor="middle" x="968.2463" y="-1609.2" font-family="Courier,monospace" font-size="11.00" fill="#000000">Exception</text>
</g>
<!-- \\Anax\\DI\\Exception\\Exception&#45;&gt;\\Exception -->
<g id="edge32" class="edge">
<title>\\Anax\\DI\\Exception\\Exception&#45;&gt;\\Exception</title>
<path fill="none" stroke="#000000" d="M929.5295,-1614.1525C907.9729,-1613.0878 882.5696,-1607.6394 867.7463,-1590 759.9237,-1461.6937 901.7966,-218.9204 803.7463,-83 778.0845,-47.4269 730.3375,-31.3184 691.8161,-24.0261"/>
<polygon fill="none" stroke="#000000" points="692.1839,-20.5376 681.7325,-22.2747 690.986,-27.4344 692.1839,-20.5376"/>
</g>
<!-- \\Psr\\Container\\ContainerExceptionInterface -->
<g id="node51" class="node">
<title>\\Psr\\Container\\ContainerExceptionInterface</title>
<ellipse fill="none" stroke="#000000" cx="632.8114" cy="-110" rx="168.97" ry="18"/>
<text text-anchor="middle" x="632.8114" y="-106.3" font-family="Times,serif" font-size="14.00" fill="#c0c0c0">\Psr\Container\ContainerExceptionInterface</text>
</g>
<!-- \\Anax\\DI\\Exception\\Exception&#45;&gt;\\Psr\\Container\\ContainerExceptionInterface -->
<g id="edge33" class="edge">
<title>\\Anax\\DI\\Exception\\Exception&#45;&gt;\\Psr\\Container\\ContainerExceptionInterface</title>
<path fill="none" stroke="#000000" stroke-dasharray="1,5" d="M929.5398,-1614.1439C907.9866,-1613.0763 882.5834,-1607.6277 867.7463,-1590 763.6828,-1466.3648 911.4018,-257.5203 803.7463,-137 799.515,-132.2631 794.8169,-128.1244 789.7579,-124.5175"/>
<polygon fill="none" stroke="#000000" points="791.2459,-121.3177 780.9219,-118.9375 787.5082,-127.2364 791.2459,-121.3177"/>
</g>
<!-- \\Anax\\DI\\DIMagic -->
<g id="node23" class="node">
<title>\\Anax\\DI\\DIMagic</title>
<polygon fill="none" stroke="#000000" points="1000.2463,-1576 936.2463,-1576 936.2463,-1540 1000.2463,-1540 1000.2463,-1576"/>
<text text-anchor="middle" x="968.2463" y="-1555.2" font-family="Courier,monospace" font-size="11.00" fill="#000000">DIMagic</text>
</g>
<!-- \\Anax\\DI\\DIFactoryConfig -->
<g id="node25" class="node">
<title>\\Anax\\DI\\DIFactoryConfig</title>
<polygon fill="none" stroke="#000000" points="691.8114,-1522 573.8114,-1522 573.8114,-1486 691.8114,-1486 691.8114,-1522"/>
<text text-anchor="middle" x="632.8114" y="-1501.2" font-family="Courier,monospace" font-size="11.00" fill="#000000">DIFactoryConfig</text>
</g>
<!-- \\Anax\\DI\\DIMagic&#45;&gt;\\Anax\\DI\\DIFactoryConfig -->
<g id="edge9" class="edge">
<title>\\Anax\\DI\\DIMagic&#45;&gt;\\Anax\\DI\\DIFactoryConfig</title>
<path fill="none" stroke="#000000" d="M936.0833,-1552.8223C882.5536,-1544.2048 773.9979,-1526.7289 702.345,-1515.1939"/>
<polygon fill="none" stroke="#000000" points="702.4811,-1511.6708 692.0519,-1513.5368 701.3685,-1518.5818 702.4811,-1511.6708"/>
</g>
<!-- \\Psr\\Container\\ContainerInterface -->
<g id="node49" class="node">
<title>\\Psr\\Container\\ContainerInterface</title>
<ellipse fill="none" stroke="#000000" cx="131.9383" cy="-784" rx="131.8766" ry="18"/>
<text text-anchor="middle" x="131.9383" y="-780.3" font-family="Times,serif" font-size="14.00" fill="#c0c0c0">\Psr\Container\ContainerInterface</text>
</g>
<!-- \\Anax\\DI\\DIMagic&#45;&gt;\\Psr\\Container\\ContainerInterface -->
<g id="edge10" class="edge">
<title>\\Anax\\DI\\DIMagic&#45;&gt;\\Psr\\Container\\ContainerInterface</title>
<path fill="none" stroke="#000000" stroke-dasharray="1,5" d="M936.2403,-1558.6399C913.3797,-1557.213 883.9159,-1551.1495 867.7463,-1531 766.9515,-1405.3965 917.6856,-196.814 803.7463,-83 734.3678,-13.6979 460.91,-61.6315 362.8766,-64"/>
<path fill="none" stroke="#000000" stroke-dasharray="1,5" d="M362.8766,-64C214.9666,-67.5566 148.482,-623.0769 134.7063,-755.7734"/>
<polygon fill="none" stroke="#000000" points="131.2022,-755.6368 133.6688,-765.9405 138.166,-756.3475 131.2022,-755.6368"/>
</g>
<!-- \\Anax\\DI\\DI -->
<g id="node24" class="node">
<title>\\Anax\\DI\\DI</title>
<polygon fill="none" stroke="#000000" points="389.8766,-1522 335.8766,-1522 335.8766,-1486 389.8766,-1486 389.8766,-1522"/>
<text text-anchor="middle" x="362.8766" y="-1501.2" font-family="Courier,monospace" font-size="11.00" fill="#000000">DI</text>
</g>
<!-- \\Anax\\DI\\DI&#45;&gt;\\Psr\\Container\\ContainerInterface -->
<g id="edge23" class="edge">
<title>\\Anax\\DI\\DI&#45;&gt;\\Psr\\Container\\ContainerInterface</title>
<path fill="none" stroke="#000000" stroke-dasharray="1,5" d="M357.0525,-1485.842C325.8842,-1388.6681 178.7994,-930.0995 140.8759,-811.8649"/>
<polygon fill="none" stroke="#000000" points="144.1337,-810.5621 137.7467,-802.1089 137.4682,-812.7001 144.1337,-810.5621"/>
</g>
<!-- \\Anax\\DI\\DIFactoryConfig&#45;&gt;\\Anax\\DI\\DI -->
<g id="edge26" class="edge">
<title>\\Anax\\DI\\DIFactoryConfig&#45;&gt;\\Anax\\DI\\DI</title>
<path fill="none" stroke="#000000" d="M573.5731,-1504C520.7001,-1504 444.9022,-1504 400.0983,-1504"/>
<polygon fill="none" stroke="#000000" points="399.9482,-1500.5001 389.9481,-1504 399.9481,-1507.5001 399.9482,-1500.5001"/>
</g>
<!-- \\Anax\\DI\\DIFactoryConfig&#45;&gt;\\Psr\\Container\\ContainerInterface -->
<g id="edge27" class="edge">
<title>\\Anax\\DI\\DIFactoryConfig&#45;&gt;\\Psr\\Container\\ContainerInterface</title>
<path fill="none" stroke="#000000" stroke-dasharray="1,5" d="M573.4308,-1510.4676C535.8393,-1511.0011 489.3117,-1504.4366 461.8766,-1474 356.725,-1357.3442 519.8831,-60.2067 362.8766,-64"/>
</g>
<!-- \\Anax\\DI\\DIMagicTrait -->
<g id="node26" class="node">
<title>\\Anax\\DI\\DIMagicTrait</title>
<polygon fill="none" stroke="#000000" points="1017.2463,-1522 919.2463,-1522 919.2463,-1486 1017.2463,-1486 1017.2463,-1522"/>
<text text-anchor="middle" x="968.2463" y="-1501.2" font-family="Courier,monospace" font-size="11.00" fill="#000000">DIMagicTrait</text>
</g>
<!-- \\Anax\\View\\View -->
<g id="node27" class="node">
<title>\\Anax\\View\\View</title>
<polygon fill="none" stroke="#000000" points="995.2463,-1442 941.2463,-1442 941.2463,-1406 995.2463,-1406 995.2463,-1442"/>
<text text-anchor="middle" x="968.2463" y="-1421.2" font-family="Courier,monospace" font-size="11.00" fill="#000000">View</text>
</g>
<!-- \\Anax\\View\\ViewCollection -->
<g id="node28" class="node">
<title>\\Anax\\View\\ViewCollection</title>
<polygon fill="none" stroke="#000000" points="1023.7463,-1388 912.7463,-1388 912.7463,-1352 1023.7463,-1352 1023.7463,-1388"/>
<text text-anchor="middle" x="968.2463" y="-1367.2" font-family="Courier,monospace" font-size="11.00" fill="#000000">ViewCollection</text>
</g>
<!-- \\Anax\\View\\ViewCollection&#45;&gt;\\Anax\\Commons\\ContainerInjectableInterface -->
<g id="edge11" class="edge">
<title>\\Anax\\View\\ViewCollection&#45;&gt;\\Anax\\Commons\\ContainerInjectableInterface</title>
<path fill="none" stroke="#000000" stroke-dasharray="1,5" d="M912.5198,-1372.8122C895.7188,-1376.5153 878.818,-1383.6498 867.7463,-1397 748.8053,-1540.418 930.104,-2096.0716 803.7463,-2233 788.6393,-2249.3708 767.9444,-2258.5236 746.1657,-2263.2662"/>
<polygon fill="none" stroke="#000000" points="745.2872,-2259.8696 736.0992,-2265.145 746.5716,-2266.7508 745.2872,-2259.8696"/>
</g>
<!-- \\Anax\\View\\ViewRenderFile -->
<g id="node29" class="node">
<title>\\Anax\\View\\ViewRenderFile</title>
<polygon fill="none" stroke="#000000" points="1023.7463,-1334 912.7463,-1334 912.7463,-1298 1023.7463,-1298 1023.7463,-1334"/>
<text text-anchor="middle" x="968.2463" y="-1313.2" font-family="Courier,monospace" font-size="11.00" fill="#000000">ViewRenderFile</text>
</g>
<!-- \\Anax\\View\\ViewRenderFile&#45;&gt;\\Anax\\Commons\\ContainerInjectableInterface -->
<g id="edge18" class="edge">
<title>\\Anax\\View\\ViewRenderFile&#45;&gt;\\Anax\\Commons\\ContainerInjectableInterface</title>
<path fill="none" stroke="#000000" stroke-dasharray="1,5" d="M912.7462,-1318.7248C895.8563,-1322.4092 878.8446,-1329.5546 867.7463,-1343 741.5188,-1495.9214 937.8828,-2086.9667 803.7463,-2233 788.6771,-2249.4056 767.9982,-2258.5731 746.223,-2263.319"/>
<polygon fill="none" stroke="#000000" points="745.3449,-2259.9223 736.1572,-2265.1985 746.6298,-2266.8034 745.3449,-2259.9223"/>
</g>
<!-- \\Anax\\View\\ViewRenderFileInterface -->
<g id="node31" class="node">
<title>\\Anax\\View\\ViewRenderFileInterface</title>
<polygon fill="none" stroke="#000000" points="718.8114,-1334 546.8114,-1334 546.8114,-1298 718.8114,-1298 718.8114,-1334"/>
<text text-anchor="middle" x="632.8114" y="-1313.2" font-family="Courier,monospace" font-size="11.00" fill="#000000">ViewRenderFileInterface</text>
</g>
<!-- \\Anax\\View\\ViewRenderFile&#45;&gt;\\Anax\\View\\ViewRenderFileInterface -->
<g id="edge17" class="edge">
<title>\\Anax\\View\\ViewRenderFile&#45;&gt;\\Anax\\View\\ViewRenderFileInterface</title>
<path fill="none" stroke="#000000" stroke-dasharray="1,5" d="M912.4795,-1316C862.6416,-1316 788.5319,-1316 729.1211,-1316"/>
<polygon fill="none" stroke="#000000" points="728.9653,-1312.5001 718.9653,-1316 728.9653,-1319.5001 728.9653,-1312.5001"/>
</g>
<!-- \\Anax\\View\\Exception -->
<g id="node30" class="node">
<title>\\Anax\\View\\Exception</title>
<polygon fill="none" stroke="#000000" points="1006.7463,-1280 929.7463,-1280 929.7463,-1244 1006.7463,-1244 1006.7463,-1280"/>
<text text-anchor="middle" x="968.2463" y="-1259.2" font-family="Courier,monospace" font-size="11.00" fill="#000000">Exception</text>
</g>
<!-- \\Anax\\View\\Exception&#45;&gt;\\Exception -->
<g id="edge31" class="edge">
<title>\\Anax\\View\\Exception&#45;&gt;\\Exception</title>
<path fill="none" stroke="#000000" d="M929.5707,-1260.8305C907.8875,-1257.9805 882.3412,-1250.5207 867.7463,-1232 704.9314,-1025.3908 977.181,-247.7787 803.7463,-50 776.3623,-18.7724 729.0489,-11.8657 691.1325,-12.1589"/>
<polygon fill="none" stroke="#000000" points="690.6214,-8.6704 680.7117,-12.4183 690.7957,-15.6683 690.6214,-8.6704"/>
</g>
<!-- \\Anax\\Request\\Request -->
<g id="node32" class="node">
<title>\\Anax\\Request\\Request</title>
<polygon fill="none" stroke="#000000" points="1000.2463,-1200 936.2463,-1200 936.2463,-1164 1000.2463,-1164 1000.2463,-1200"/>
<text text-anchor="middle" x="968.2463" y="-1179.2" font-family="Courier,monospace" font-size="11.00" fill="#000000">Request</text>
</g>
<!-- \\Anax\\Route\\Exception\\InternalErrorException -->
<g id="node33" class="node">
<title>\\Anax\\Route\\Exception\\InternalErrorException</title>
<polygon fill="none" stroke="#000000" points="1050.7463,-716 885.7463,-716 885.7463,-680 1050.7463,-680 1050.7463,-716"/>
<text text-anchor="middle" x="968.2463" y="-695.2" font-family="Courier,monospace" font-size="11.00" fill="#000000">InternalErrorException</text>
</g>
<!-- \\Anax\\Route\\Exception\\InternalErrorException&#45;&gt;\\Exception -->
<g id="edge8" class="edge">
<title>\\Anax\\Route\\Exception\\InternalErrorException&#45;&gt;\\Exception</title>
<path fill="none" stroke="#000000" d="M885.2887,-685.0516C878.6774,-681.3844 872.6665,-676.7765 867.7463,-671 777.7893,-565.3874 897.7218,-152.0533 803.7463,-50 775.7985,-19.65 728.9814,-12.5835 691.4033,-12.591"/>
<polygon fill="none" stroke="#000000" points="691.0115,-9.0971 681.0727,-12.7672 691.1309,-16.096 691.0115,-9.0971"/>
</g>
<!-- \\Anax\\Route\\Exception\\NotFoundException -->
<g id="node34" class="node">
<title>\\Anax\\Route\\Exception\\NotFoundException</title>
<polygon fill="none" stroke="#000000" points="1033.7463,-662 902.7463,-662 902.7463,-626 1033.7463,-626 1033.7463,-662"/>
<text text-anchor="middle" x="968.2463" y="-641.2" font-family="Courier,monospace" font-size="11.00" fill="#000000">NotFoundException</text>
</g>
<!-- \\Anax\\Route\\Exception\\NotFoundException&#45;&gt;\\Exception -->
<g id="edge16" class="edge">
<title>\\Anax\\Route\\Exception\\NotFoundException&#45;&gt;\\Exception</title>
<path fill="none" stroke="#000000" d="M902.5361,-641.623C889.3814,-638.1208 876.8325,-632.0849 867.7463,-622 696.5162,-431.9518 977.8491,-237.4199 803.7463,-50 775.6663,-19.7723 728.8582,-12.6974 691.3171,-12.6707"/>
<polygon fill="none" stroke="#000000" points="690.94,-9.1762 680.9976,-12.8367 691.0526,-16.1753 690.94,-9.1762"/>
</g>
<!-- \\Anax\\Route\\Exception\\ConfigurationException -->
<g id="node35" class="node">
<title>\\Anax\\Route\\Exception\\ConfigurationException</title>
<polygon fill="none" stroke="#000000" points="1050.7463,-824 885.7463,-824 885.7463,-788 1050.7463,-788 1050.7463,-824"/>
<text text-anchor="middle" x="968.2463" y="-803.2" font-family="Courier,monospace" font-size="11.00" fill="#000000">ConfigurationException</text>
</g>
<!-- \\Anax\\Route\\Exception\\ConfigurationException&#45;&gt;\\Exception -->
<g id="edge19" class="edge">
<title>\\Anax\\Route\\Exception\\ConfigurationException&#45;&gt;\\Exception</title>
<path fill="none" stroke="#000000" d="M885.6687,-793.3907C878.8896,-789.6663 872.7388,-784.952 867.7463,-779 763.2365,-654.4047 912.9981,-170.4587 803.7463,-50 775.9362,-19.3372 728.8828,-12.3402 691.1761,-12.4546"/>
<polygon fill="none" stroke="#000000" points="690.7406,-8.9625 680.8125,-12.6617 690.8805,-15.9611 690.7406,-8.9625"/>
</g>
<!-- \\Anax\\Route\\Exception\\ForbiddenException -->
<g id="node36" class="node">
<title>\\Anax\\Route\\Exception\\ForbiddenException</title>
<polygon fill="none" stroke="#000000" points="1037.2463,-770 899.2463,-770 899.2463,-734 1037.2463,-734 1037.2463,-770"/>
<text text-anchor="middle" x="968.2463" y="-749.2" font-family="Courier,monospace" font-size="11.00" fill="#000000">ForbiddenException</text>
</g>
<!-- \\Anax\\Route\\Exception\\ForbiddenException&#45;&gt;\\Exception -->
<g id="edge20" class="edge">
<title>\\Anax\\Route\\Exception\\ForbiddenException&#45;&gt;\\Exception</title>
<path fill="none" stroke="#000000" d="M899.104,-745.2521C887.1195,-741.0573 875.9073,-734.661 867.7463,-725 770.515,-609.8985 905.3578,-161.2536 803.7463,-50 775.8296,-19.4343 728.7837,-12.4304 691.1071,-12.5174"/>
<polygon fill="none" stroke="#000000" points="690.6834,-9.0248 680.7525,-12.7163 690.8179,-16.0235 690.6834,-9.0248"/>
</g>
<!-- \\Anax\\Route\\RouteHandler -->
<g id="node37" class="node">
<title>\\Anax\\Route\\RouteHandler</title>
<polygon fill="none" stroke="#000000" points="1017.2463,-608 919.2463,-608 919.2463,-572 1017.2463,-572 1017.2463,-608"/>
<text text-anchor="middle" x="968.2463" y="-587.2" font-family="Courier,monospace" font-size="11.00" fill="#000000">RouteHandler</text>
</g>
<!-- \\Anax\\Route\\Route -->
<g id="node38" class="node">
<title>\\Anax\\Route\\Route</title>
<polygon fill="none" stroke="#000000" points="995.2463,-554 941.2463,-554 941.2463,-518 995.2463,-518 995.2463,-554"/>
<text text-anchor="middle" x="968.2463" y="-533.2" font-family="Courier,monospace" font-size="11.00" fill="#000000">Route</text>
</g>
<!-- \\Anax\\Route\\RouteMatcher -->
<g id="node39" class="node">
<title>\\Anax\\Route\\RouteMatcher</title>
<polygon fill="none" stroke="#000000" points="1017.2463,-500 919.2463,-500 919.2463,-464 1017.2463,-464 1017.2463,-500"/>
<text text-anchor="middle" x="968.2463" y="-479.2" font-family="Courier,monospace" font-size="11.00" fill="#000000">RouteMatcher</text>
</g>
<!-- \\Anax\\Response\\Exception -->
<g id="node40" class="node">
<title>\\Anax\\Response\\Exception</title>
<polygon fill="none" stroke="#000000" points="1006.7463,-1066 929.7463,-1066 929.7463,-1030 1006.7463,-1030 1006.7463,-1066"/>
<text text-anchor="middle" x="968.2463" y="-1045.2" font-family="Courier,monospace" font-size="11.00" fill="#000000">Exception</text>
</g>
<!-- \\Anax\\Response\\Exception&#45;&gt;\\Exception -->
<g id="edge13" class="edge">
<title>\\Anax\\Response\\Exception&#45;&gt;\\Exception</title>
<path fill="none" stroke="#000000" d="M929.6514,-1046.7665C907.9964,-1043.8941 882.4514,-1036.4333 867.7463,-1018 733.3059,-849.4745 946.8468,-211.2368 803.7463,-50 776.1766,-18.9362 728.877,-12.0174 691.0132,-12.2641"/>
<polygon fill="none" stroke="#000000" points="690.5228,-8.7746 680.6081,-12.5096 690.6879,-15.7727 690.5228,-8.7746"/>
</g>
<!-- \\Anax\\Response\\ResponseUtility -->
<g id="node41" class="node">
<title>\\Anax\\Response\\ResponseUtility</title>
<polygon fill="none" stroke="#000000" points="1027.2463,-1120 909.2463,-1120 909.2463,-1084 1027.2463,-1084 1027.2463,-1120"/>
<text text-anchor="middle" x="968.2463" y="-1099.2" font-family="Courier,monospace" font-size="11.00" fill="#000000">ResponseUtility</text>
</g>
<!-- \\Anax\\Response\\ResponseUtility&#45;&gt;\\Anax\\Commons\\ContainerInjectableInterface -->
<g id="edge15" class="edge">
<title>\\Anax\\Response\\ResponseUtility&#45;&gt;\\Anax\\Commons\\ContainerInjectableInterface</title>
<path fill="none" stroke="#000000" stroke-dasharray="1,5" d="M909.0035,-1119.1013C893.0523,-1126.6123 877.5262,-1137.2065 867.7463,-1152 735.0364,-1352.7413 965.41,-2054.7479 803.7463,-2233 788.6937,-2249.5971 767.9045,-2258.8155 745.9986,-2263.5457"/>
<polygon fill="none" stroke="#000000" points="745.0709,-2260.1577 735.8717,-2265.4136 746.3407,-2267.0416 745.0709,-2260.1577"/>
</g>
<!-- \\Anax\\Response\\Response -->
<g id="node42" class="node">
<title>\\Anax\\Response\\Response</title>
<polygon fill="none" stroke="#000000" points="668.3114,-1120 597.3114,-1120 597.3114,-1084 668.3114,-1084 668.3114,-1120"/>
<text text-anchor="middle" x="632.8114" y="-1099.2" font-family="Courier,monospace" font-size="11.00" fill="#000000">Response</text>
</g>
<!-- \\Anax\\Response\\ResponseUtility&#45;&gt;\\Anax\\Response\\Response -->
<g id="edge14" class="edge">
<title>\\Anax\\Response\\ResponseUtility&#45;&gt;\\Anax\\Response\\Response</title>
<path fill="none" stroke="#000000" d="M909.0494,-1102C843.4016,-1102 738.8801,-1102 678.9969,-1102"/>
<polygon fill="none" stroke="#000000" points="678.7113,-1098.5001 668.7113,-1102 678.7113,-1105.5001 678.7113,-1098.5001"/>
</g>
<!-- \\Anax\\Url\\Exception -->
<g id="node43" class="node">
<title>\\Anax\\Url\\Exception</title>
<polygon fill="none" stroke="#000000" points="1006.7463,-932 929.7463,-932 929.7463,-896 1006.7463,-896 1006.7463,-932"/>
<text text-anchor="middle" x="968.2463" y="-911.2" font-family="Courier,monospace" font-size="11.00" fill="#000000">Exception</text>
</g>
<!-- \\Anax\\Url\\Exception&#45;&gt;\\Exception -->
<g id="edge21" class="edge">
<title>\\Anax\\Url\\Exception&#45;&gt;\\Exception</title>
<path fill="none" stroke="#000000" d="M929.5895,-901.8753C907.6262,-892.8653 881.7843,-878.2275 867.7463,-856 771.8026,-704.0859 923.8984,-183.5909 803.7463,-50 776.0641,-19.2217 729.0016,-12.2329 691.2589,-12.3798"/>
<polygon fill="none" stroke="#000000" points="690.8092,-8.8884 680.8845,-12.5967 690.9555,-15.8868 690.8092,-8.8884"/>
</g>
<!-- \\Anax\\Url\\Url -->
<g id="node44" class="node">
<title>\\Anax\\Url\\Url</title>
<polygon fill="none" stroke="#000000" points="995.2463,-986 941.2463,-986 941.2463,-950 995.2463,-950 995.2463,-986"/>
<text text-anchor="middle" x="968.2463" y="-965.2" font-family="Courier,monospace" font-size="11.00" fill="#000000">Url</text>
</g>
<!-- \\Anax\\Url\\Url&#45;&gt;\\Anax\\Configure\\ConfigureInterface -->
<g id="edge24" class="edge">
<title>\\Anax\\Url\\Url&#45;&gt;\\Anax\\Configure\\ConfigureInterface</title>
<path fill="none" stroke="#000000" stroke-dasharray="1,5" d="M941.1046,-967.3585C918.8029,-965.4241 887.7345,-959.2997 867.7463,-941 806.6634,-885.0773 867.7006,-818.6148 803.7463,-766 778.414,-745.1594 743.5969,-737.1844 711.9935,-734.8917"/>
<polygon fill="none" stroke="#000000" points="712.0378,-731.389 701.8616,-734.3378 711.6556,-738.3785 712.0378,-731.389"/>
</g>
<!-- \\Anax\\Session\\SessionInterface -->
<g id="node45" class="node">
<title>\\Anax\\Session\\SessionInterface</title>
<polygon fill="none" stroke="#000000" points="1030.7463,-420 905.7463,-420 905.7463,-384 1030.7463,-384 1030.7463,-420"/>
<text text-anchor="middle" x="968.2463" y="-399.2" font-family="Courier,monospace" font-size="11.00" fill="#000000">SessionInterface</text>
</g>
<!-- \\Jonathan\\Guess\\GuessException -->
<g id="node46" class="node">
<title>\\Jonathan\\Guess\\GuessException</title>
<polygon fill="none" stroke="#000000" points="1023.7463,-304 912.7463,-304 912.7463,-268 1023.7463,-268 1023.7463,-304"/>
<text text-anchor="middle" x="968.2463" y="-283.2" font-family="Courier,monospace" font-size="11.00" fill="#000000">GuessException</text>
</g>
<!-- \\Jonathan\\Guess\\GuessException&#45;&gt;\\Exception -->
<g id="edge22" class="edge">
<title>\\Jonathan\\Guess\\GuessException&#45;&gt;\\Exception</title>
<path fill="none" stroke="#000000" d="M912.5978,-281.2978C896.3991,-277.428 879.8313,-270.6729 867.7463,-259 797.8721,-191.509 876.1792,-114.7372 803.7463,-50 773.7045,-23.15 728.5319,-15.5978 692.168,-14.52"/>
<polygon fill="none" stroke="#000000" points="692.214,-11.0204 682.165,-14.377 692.1139,-18.0196 692.214,-11.0204"/>
</g>
<!-- \\Jonathan\\Guess\\Guess -->
<g id="node47" class="node">
<title>\\Jonathan\\Guess\\Guess</title>
<polygon fill="none" stroke="#000000" points="995.2463,-250 941.2463,-250 941.2463,-214 995.2463,-214 995.2463,-250"/>
<text text-anchor="middle" x="968.2463" y="-229.2" font-family="Courier,monospace" font-size="11.00" fill="#000000">Guess</text>
</g>
</g>
</svg>
